<svg width="25" height="25" viewBox="0 0 25 25" fill="none" xmlns="http://www.w3.org/2000/svg">
<path d="M12.6403 13.2668C12.5584 13.2551 12.4533 13.2551 12.3598 13.2668C10.3029 13.1965 8.66666 11.511 8.66666 9.43927C8.66666 7.3207 10.373 5.6001 12.5 5.6001C14.6153 5.6001 16.3333 7.3207 16.3333 9.43927C16.3216 11.511 14.6972 13.1965 12.6403 13.2668Z" stroke="white" stroke-width="2" stroke-linecap="round" stroke-linejoin="round"/>
<path d="M20.1667 20.9403C18.1419 22.8438 15.4575 23.9999 12.5 23.9999C9.54255 23.9999 6.85807 22.8438 4.83334 20.9403C4.94709 19.8425 5.62959 18.7681 6.8467 17.9273C9.96342 15.8019 15.0594 15.8019 18.1533 17.9273C19.3704 18.7681 20.0529 19.8425 20.1667 20.9403Z" stroke="white" stroke-width="2" stroke-linecap="round" stroke-linejoin="round"/>
<path d="M12.5 24C18.8512 24 24 18.8512 24 12.5C24 6.14872 18.8512 1 12.5 1C6.14872 1 1 6.14872 1 12.5C1 18.8512 6.14872 24 12.5 24Z" stroke="white" stroke-width="2" stroke-linecap="round" stroke-linejoin="round"/>
</svg>
