<svg width="187" height="239" viewBox="0 0 187 239" fill="none" xmlns="http://www.w3.org/2000/svg">
<path d="M83.9483 1.70245L83.9475 1.70261C68.734 4.79549 52.8975 12.4009 42.4846 21.7878L42.4838 21.7885C24.2728 38.1369 15.8801 59.2189 18.638 81.8362C18.638 81.8367 18.6381 81.8372 18.6381 81.8376L19.775 90.7713L19.7962 90.9378L19.7127 91.0833L12.1343 104.288C12.1337 104.289 12.1331 104.29 12.1326 104.291C8.08741 111.547 3.55748 120.321 2.18231 123.909C1.26729 126.302 0.696527 128.144 0.542129 129.581C0.389569 131.002 0.649909 131.956 1.32004 132.663C2.01794 133.399 3.23508 133.952 5.19554 134.369C7.1437 134.784 9.7422 135.049 13.1197 135.276C13.1201 135.276 13.1205 135.276 13.1209 135.276L23.732 135.923L24.1656 135.95L24.2 136.383L25.5899 153.867C25.5899 153.867 25.5899 153.867 25.5899 153.867C26.1582 160.985 26.835 166.562 27.8952 170.924C28.9552 175.286 30.3884 178.391 32.4393 180.602C36.5335 185.016 43.2514 186.044 55.1592 185.914V185.914H55.1647C58.6503 185.914 61.9813 186.044 64.5406 186.255C65.8191 186.361 66.9134 186.488 67.7415 186.631C68.1548 186.703 68.5116 186.78 68.7962 186.864C69.0582 186.941 69.3323 187.043 69.5152 187.199L69.5204 187.204C69.6401 187.309 69.7408 187.461 69.8223 187.6C69.9115 187.752 70.0083 187.942 70.1115 188.163C70.3184 188.606 70.5645 189.202 70.8437 189.927C71.4025 191.381 72.1043 193.385 72.9029 195.792C74.5005 200.607 76.4924 207.056 78.5152 213.988C80.662 221.237 82.6495 227.509 84.1936 231.934C84.9664 234.149 85.6248 235.891 86.1344 237.059C86.3906 237.647 86.6015 238.071 86.7637 238.334C86.7886 238.374 86.8109 238.408 86.8306 238.437C87.627 238.149 90.2055 237.201 94.0825 235.775C101.626 233.001 114.086 228.419 127.9 223.373C127.901 223.373 127.901 223.373 127.902 223.373L167.334 208.792L164.637 202.542L164.636 202.54C161.91 196.171 158.65 186.795 155.962 177.996C153.279 169.21 151.148 160.943 150.7 156.81L150.699 156.808C150.001 150.109 150.182 145.411 152.11 140.811C154.029 136.231 157.661 131.801 163.727 125.583C175.55 113.465 182.791 100.34 185.375 86.7746C187.959 73.2121 185.896 59.1726 179.052 45.2075L179.051 45.2056C168.767 23.9958 146.796 7.89078 120.513 2.21944L120.508 2.21851C115.946 1.19351 109.004 0.611542 102.084 0.514603C95.1622 0.417648 88.318 0.806686 83.9483 1.70245ZM86.9296 238.562C86.9296 238.562 86.929 238.561 86.9277 238.56C86.929 238.561 86.9296 238.562 86.9296 238.562Z" fill="#59B73A" stroke="#59B73A"/>
<path d="M78.1046 20.1475L78.0749 20.1683L78.0448 20.1884C74.7793 22.3713 68.6148 25.1008 64.1535 26.3479L64.1406 26.3515L64.1277 26.355C60.1534 27.4333 55.0692 29.8417 52.9852 31.4321C51.1082 32.9366 48.6353 35.8365 46.5872 38.8617C45.5781 40.3524 44.7395 41.7748 44.1689 42.9516C43.6628 43.9953 43.516 44.5493 43.4758 44.7014C43.4642 44.7452 43.4614 44.7557 43.4614 44.735C43.4614 45.7106 43.1162 46.5951 42.9191 47.0619C42.6695 47.653 42.3424 48.2755 41.9868 48.883C41.2718 50.1044 40.3142 51.481 39.2654 52.771L39.2553 52.7835L39.245 52.7958C34.1333 58.9665 32.0892 64.7581 32.0892 74.0046C32.0892 79.2421 32.723 83.2009 34.022 86.4741C35.3047 89.7061 37.3187 92.4777 40.396 95.2229C43.5918 98.0739 46.3569 99.8707 49.4427 101.036C52.5566 102.212 56.2162 102.828 61.3175 103.014L61.335 103.015L61.3524 103.016C65.4037 103.204 68.3334 103.399 70.6774 104.151C73.3093 104.995 74.9946 106.456 76.8219 108.327C81.9624 113.476 87.2706 115.718 94.9798 115.834L94.9933 115.834L95.0068 115.834C101.147 115.974 105.063 116.857 109.996 119.829C119.894 125.746 128.774 126.561 136.564 123.013L136.569 123.01C140.068 121.423 145.384 117.981 150.358 114.225C155.407 110.413 159.515 106.718 160.944 104.737C161.789 103.545 162.688 101.917 163.421 100.267C164.176 98.5678 164.63 97.1247 164.752 96.2918C165.175 93.3975 166.765 87.4796 168.301 82.8852C173.581 66.5096 170.602 50.6937 161.848 42.0546C159.318 39.5905 153.741 34.1349 149.416 29.7024C143.956 24.17 139.97 21.0193 135.747 19.1522C131.55 17.2968 126.797 16.5677 119.536 16.5047L119.517 16.5045L119.498 16.5041C112.9 16.374 103.954 15.9835 99.6567 15.5831C95.676 15.2122 90.1262 15.364 87.571 15.9096C85.0398 16.4501 80.5397 18.4458 78.1046 20.1475Z" fill="#223324" stroke="#59B73A" stroke-width="7"/>
<path d="M77.3753 41.2074C76.6171 59.0799 79.9024 73.1967 86.473 81.4854C91.9064 88.22 104.037 94.1775 112.376 94.1775C119.326 94.1775 131.962 90.6807 131.962 88.738C131.962 88.22 130.572 87.7019 128.803 87.7019C118.442 87.7019 99.867 74.4918 94.5599 63.2243C91.6537 57.0078 89.632 56.2307 90.7692 61.7997C92.2855 69.6999 104.037 83.4281 112.376 87.1839C114.524 88.0905 113.387 85.1836 109.47 85.5721C102.395 77.282 98.6034 73.2566 91.1319 63.2243C90.3737 60.6341 91.1483 57.3963 90.7692 52.8634L81.166 46.1288L84.2221 61.6702C88.6447 63.4833 93.9611 61.5406 101.795 62.1882C152.218 104.539 132.467 57.6553 135.626 67.2391C138.027 74.6213 136.511 76.4344 128.803 75.7869C120.084 75.0098 111.886 64.3961 103.925 56.6254C100.387 53.1286 94.3072 55.3241 93.8018 55.3241C91.6537 55.3241 93.0436 57.9143 98.6034 64.3899C107.069 73.9737 118.694 79.5427 134.742 81.7444L139.417 82.392L140.301 75.2688C140.933 69.4408 140.554 67.3687 138.153 62.1882C133.731 53.1224 127.034 50.0141 109.47 48.8485C94.6863 47.942 89.2529 46.1288 82.3032 39.7828L77.628 35.6384L77.3753 41.2074Z" fill="#59B73A"/>
</svg>
