<svg width="45" height="38" viewBox="0 0 50 43" fill="none" xmlns="http://www.w3.org/2000/svg">
<g filter="url(#filter0_d_103_1970)">
<path fill-rule="evenodd" clip-rule="evenodd" d="M25 1.90909C25 0.854738 25.8547 0 26.9091 0H29.8844C32.3496 0 34.5382 1.57746 35.3177 3.91616L41.7093 23.0908C44.177 23.7281 46 25.9694 46 28.6364C46 31.7995 43.4359 34.3636 40.2727 34.3636C37.1096 34.3636 34.5455 31.7995 34.5455 28.6364C34.5455 26.3552 35.8791 24.3856 37.8092 23.4644L36.4826 19.4851L32.5356 27.3794C31.5654 29.3196 29.5822 30.5453 27.4129 30.5453H15.1287C14.3425 32.7699 12.221 34.3636 9.72727 34.3636C6.5642 34.3636 4 31.7995 4 28.6364C4 25.4732 6.5642 22.9091 9.72727 22.9091C12.2209 22.9091 14.3424 24.5028 15.1286 26.7271H27.4129C28.1361 26.7271 28.7972 26.3185 29.1206 25.6719L34.7471 14.4188L34.8034 14.447L31.6956 5.12356C31.4357 4.344 30.7061 3.81818 29.8844 3.81818H26.9091C25.8547 3.81818 25 2.96344 25 1.90909ZM9.72727 30.5516C8.66954 30.5516 7.81209 29.694 7.81209 28.6364C7.81209 27.5787 8.66954 26.7212 9.72727 26.7212C10.785 26.7212 11.6425 27.5787 11.6425 28.6364C11.6425 29.694 10.785 30.5516 9.72727 30.5516ZM40.2727 30.5516C39.2151 30.5516 38.3575 29.694 38.3575 28.6364C38.3575 27.5787 39.2151 26.7212 40.2727 26.7212C41.3304 26.7212 42.1879 27.5787 42.1879 28.6364C42.1879 29.694 41.3304 30.5516 40.2727 30.5516Z" fill="white"/>
</g>
<defs>
<filter id="filter0_d_103_1970" x="0" y="0" width="50" height="42.3638" filterUnits="userSpaceOnUse" color-interpolation-filters="sRGB">
<feFlood flood-opacity="0" result="BackgroundImageFix"/>
<feColorMatrix in="SourceAlpha" type="matrix" values="0 0 0 0 0 0 0 0 0 0 0 0 0 0 0 0 0 0 127 0" result="hardAlpha"/>
<feOffset dy="4"/>
<feGaussianBlur stdDeviation="2"/>
<feComposite in2="hardAlpha" operator="out"/>
<feColorMatrix type="matrix" values="0 0 0 0 0 0 0 0 0 0 0 0 0 0 0 0 0 0 0.25 0"/>
<feBlend mode="normal" in2="BackgroundImageFix" result="effect1_dropShadow_103_1970"/>
<feBlend mode="normal" in="SourceGraphic" in2="effect1_dropShadow_103_1970" result="shape"/>
</filter>
</defs>
</svg>
