<svg width="104" height="104" viewBox="0 0 104 104" fill="none" xmlns="http://www.w3.org/2000/svg">
<circle cx="52" cy="52" r="50" fill="#071302"/>
<path d="M53.429 101.979C66.6844 101.6 79.2463 95.9713 88.3513 86.3303C97.4564 76.6893 102.359 63.8263 101.98 50.5709C101.601 37.3155 95.9715 24.7535 86.3305 15.6485C76.6895 6.54351 63.8265 1.64128 50.5711 2.02026L52 51.9998L53.429 101.979Z" fill="#59B73A"/>
<circle cx="52" cy="52" r="36" fill="#223324"/>
<path d="M42.4592 51H39.9947V43.7273H42.5089C43.2309 43.7273 43.8512 43.8729 44.3697 44.1641C44.8905 44.4529 45.2906 44.8684 45.57 45.4105C45.8493 45.9527 45.989 46.6013 45.989 47.3565C45.989 48.1141 45.8481 48.7652 45.5664 49.3097C45.2871 49.8542 44.8834 50.272 44.3555 50.5632C43.8299 50.8544 43.1978 51 42.4592 51ZM41.3121 49.8601H42.3952C42.9019 49.8601 43.3245 49.7678 43.663 49.5831C44.0015 49.3961 44.256 49.1179 44.4265 48.7486C44.5969 48.3769 44.6822 47.9129 44.6822 47.3565C44.6822 46.8002 44.5969 46.3385 44.4265 45.9716C44.256 45.6023 44.0039 45.3265 43.6701 45.1442C43.3387 44.9595 42.9267 44.8672 42.4343 44.8672H41.3121V49.8601ZM48.7536 51.1101C48.4079 51.1101 48.0966 51.0485 47.8196 50.9254C47.545 50.8 47.3272 50.6153 47.1662 50.3714C47.0076 50.1276 46.9283 49.8269 46.9283 49.4695C46.9283 49.1617 46.9851 48.9072 47.0987 48.706C47.2124 48.5047 47.3674 48.3438 47.5639 48.223C47.7604 48.1023 47.9818 48.0111 48.228 47.9496C48.4766 47.8857 48.7334 47.8395 48.9986 47.8111C49.3182 47.7779 49.5774 47.7483 49.7763 47.7223C49.9751 47.6939 50.1196 47.6513 50.2095 47.5945C50.3018 47.5353 50.348 47.4441 50.348 47.321V47.2997C50.348 47.0322 50.2687 46.825 50.1101 46.6783C49.9515 46.5315 49.723 46.4581 49.4247 46.4581C49.1098 46.4581 48.8601 46.5268 48.6754 46.6641C48.4931 46.8014 48.37 46.9635 48.3061 47.1506L47.1058 46.9801C47.2005 46.6487 47.3568 46.3717 47.5746 46.1491C47.7924 45.9242 48.0587 45.7562 48.3736 45.6449C48.6884 45.5312 49.0365 45.4744 49.4176 45.4744C49.6804 45.4744 49.942 45.5052 50.2024 45.5668C50.4628 45.6283 50.7008 45.7301 50.9162 45.8722C51.1316 46.0118 51.3045 46.2024 51.4347 46.4439C51.5672 46.6854 51.6335 46.9872 51.6335 47.3494V51H50.3977V50.2507H50.3551C50.277 50.4022 50.1669 50.5443 50.0249 50.6768C49.8852 50.8071 49.7088 50.9124 49.4957 50.9929C49.285 51.071 49.0376 51.1101 48.7536 51.1101ZM49.0874 50.1655C49.3454 50.1655 49.5691 50.1146 49.7585 50.0128C49.9479 49.9086 50.0935 49.7713 50.1953 49.6009C50.2995 49.4304 50.3516 49.2446 50.3516 49.0433V48.4006C50.3113 48.4337 50.2427 48.4645 50.1456 48.4929C50.0509 48.5213 49.9444 48.5462 49.826 48.5675C49.7076 48.5888 49.5904 48.6077 49.4744 48.6243C49.3584 48.6409 49.2578 48.6551 49.1726 48.6669C48.9808 48.6929 48.8092 48.7356 48.6577 48.7947C48.5062 48.8539 48.3866 48.9368 48.299 49.0433C48.2114 49.1475 48.1676 49.2824 48.1676 49.4482C48.1676 49.6849 48.254 49.8636 48.4268 49.9844C48.5997 50.1051 48.8198 50.1655 49.0874 50.1655ZM52.9261 51V45.5455H54.2116V51H52.9261ZM53.5724 44.7713C53.3688 44.7713 53.1937 44.7038 53.0469 44.5689C52.9001 44.4316 52.8267 44.267 52.8267 44.0753C52.8267 43.8812 52.9001 43.7166 53.0469 43.5817C53.1937 43.4444 53.3688 43.3757 53.5724 43.3757C53.7784 43.3757 53.9536 43.4444 54.098 43.5817C54.2448 43.7166 54.3182 43.8812 54.3182 44.0753C54.3182 44.267 54.2448 44.4316 54.098 44.5689C53.9536 44.7038 53.7784 44.7713 53.5724 44.7713ZM56.8191 43.7273V51H55.5336V43.7273H56.8191ZM58.94 53.0455C58.7648 53.0455 58.6026 53.0313 58.4535 53.0028C58.3067 52.9768 58.1895 52.946 58.1019 52.9105L58.4002 51.9091C58.5872 51.9635 58.7541 51.9896 58.9009 51.9872C59.0477 51.9848 59.1767 51.9387 59.288 51.8487C59.4016 51.7611 59.4975 51.6143 59.5756 51.4084L59.6857 51.1136L57.7077 45.5455H59.0714L60.3285 49.6648H60.3853L61.646 45.5455H63.0131L60.8292 51.6605C60.7274 51.9493 60.5924 52.1967 60.4244 52.4027C60.2563 52.611 60.0503 52.7696 59.8065 52.8786C59.565 52.9898 59.2762 53.0455 58.94 53.0455ZM35.0821 58.1811H33.754C33.7161 57.9633 33.6463 57.7704 33.5445 57.6023C33.4427 57.4318 33.316 57.2874 33.1645 57.169C33.013 57.0507 32.8402 56.9619 32.646 56.9027C32.4543 56.8411 32.2471 56.8104 32.0246 56.8104C31.6292 56.8104 31.2789 56.9098 30.9735 57.1087C30.6681 57.3052 30.4289 57.594 30.2561 57.9751C30.0833 58.3539 29.9969 58.8168 29.9969 59.3636C29.9969 59.92 30.0833 60.3887 30.2561 60.7699C30.4313 61.1487 30.6704 61.4351 30.9735 61.6293C31.2789 61.821 31.628 61.9169 32.021 61.9169C32.2388 61.9169 32.4424 61.8885 32.6318 61.8317C32.8236 61.7725 32.9952 61.6861 33.1468 61.5724C33.3006 61.4588 33.4297 61.3191 33.5338 61.1534C33.6404 60.9877 33.7137 60.7983 33.754 60.5852L35.0821 60.5923C35.0324 60.938 34.9247 61.2623 34.759 61.5653C34.5956 61.8684 34.3814 62.1359 34.1162 62.3679C33.8511 62.5975 33.5409 62.7775 33.1858 62.9077C32.8307 63.0355 32.4365 63.0994 32.0033 63.0994C31.3641 63.0994 30.7935 62.9515 30.2916 62.6555C29.7897 62.3596 29.3944 61.9323 29.1056 61.3736C28.8167 60.8149 28.6723 60.1449 28.6723 59.3636C28.6723 58.58 28.8179 57.91 29.1091 57.3537C29.4003 56.795 29.7968 56.3677 30.2987 56.0717C30.8006 55.7758 31.3688 55.6278 32.0033 55.6278C32.4081 55.6278 32.7845 55.6847 33.1325 55.7983C33.4806 55.9119 33.7907 56.0788 34.0629 56.299C34.3352 56.5168 34.5589 56.7843 34.7341 57.1016C34.9117 57.4164 35.0277 57.7763 35.0821 58.1811ZM37.5173 59.804V63H36.2318V55.7273H37.4889V58.4723H37.5528C37.6807 58.1645 37.8783 57.9219 38.1459 57.7443C38.4157 57.5644 38.759 57.4744 39.1757 57.4744C39.5545 57.4744 39.8847 57.5537 40.1665 57.7124C40.4482 57.871 40.666 58.103 40.8199 58.4084C40.9761 58.7138 41.0542 59.0866 41.0542 59.527V63H39.7687V59.7259C39.7687 59.3589 39.674 59.0736 39.4846 58.87C39.2976 58.6641 39.0348 58.5611 38.6963 58.5611C38.469 58.5611 38.2654 58.6108 38.0855 58.7102C37.9079 58.8073 37.7683 58.9482 37.6665 59.1328C37.567 59.3175 37.5173 59.5412 37.5173 59.804ZM43.9342 63.1101C43.5886 63.1101 43.2773 63.0485 43.0003 62.9254C42.7256 62.8 42.5078 62.6153 42.3469 62.3714C42.1882 62.1276 42.1089 61.8269 42.1089 61.4695C42.1089 61.1617 42.1657 60.9072 42.2794 60.706C42.393 60.5047 42.5481 60.3438 42.7446 60.223C42.9411 60.1023 43.1624 60.0111 43.4086 59.9496C43.6572 59.8857 43.9141 59.8395 44.1792 59.8111C44.4988 59.7779 44.7581 59.7483 44.9569 59.7223C45.1558 59.6939 45.3002 59.6513 45.3902 59.5945C45.4825 59.5353 45.5287 59.4441 45.5287 59.321V59.2997C45.5287 59.0322 45.4494 58.825 45.2907 58.6783C45.1321 58.5315 44.9037 58.4581 44.6054 58.4581C44.2905 58.4581 44.0407 58.5268 43.8561 58.6641C43.6738 58.8014 43.5507 58.9635 43.4868 59.1506L42.2865 58.9801C42.3812 58.6487 42.5374 58.3717 42.7552 58.1491C42.973 57.9242 43.2394 57.7562 43.5542 57.6449C43.8691 57.5312 44.2171 57.4744 44.5983 57.4744C44.8611 57.4744 45.1227 57.5052 45.3831 57.5668C45.6435 57.6283 45.8814 57.7301 46.0969 57.8722C46.3123 58.0118 46.4851 58.2024 46.6153 58.4439C46.7479 58.6854 46.8142 58.9872 46.8142 59.3494V63H45.5784V62.2507H45.5358C45.4577 62.4022 45.3476 62.5443 45.2055 62.6768C45.0658 62.8071 44.8895 62.9124 44.6764 62.9929C44.4657 63.071 44.2183 63.1101 43.9342 63.1101ZM44.268 62.1655C44.5261 62.1655 44.7498 62.1146 44.9392 62.0128C45.1286 61.9086 45.2742 61.7713 45.376 61.6009C45.4801 61.4304 45.5322 61.2446 45.5322 61.0433V60.4006C45.492 60.4337 45.4233 60.4645 45.3263 60.4929C45.2316 60.5213 45.125 60.5462 45.0067 60.5675C44.8883 60.5888 44.7711 60.6077 44.6551 60.6243C44.5391 60.6409 44.4385 60.6551 44.3532 60.6669C44.1615 60.6929 43.9898 60.7356 43.8383 60.7947C43.6868 60.8539 43.5673 60.9368 43.4797 61.0433C43.3921 61.1475 43.3483 61.2824 43.3483 61.4482C43.3483 61.6849 43.4347 61.8636 43.6075 61.9844C43.7803 62.1051 44.0005 62.1655 44.268 62.1655ZM49.3923 55.7273V63H48.1068V55.7273H49.3923ZM51.9997 55.7273V63H50.7142V55.7273H51.9997ZM55.7364 63.1065C55.1895 63.1065 54.7172 62.9929 54.3195 62.7656C53.9242 62.536 53.6199 62.2116 53.4069 61.7926C53.1938 61.3712 53.0873 60.8752 53.0873 60.3047C53.0873 59.7436 53.1938 59.2512 53.4069 58.8274C53.6223 58.4013 53.923 58.0698 54.3089 57.8331C54.6948 57.594 55.1481 57.4744 55.6689 57.4744C56.0051 57.4744 56.3224 57.5289 56.6206 57.6378C56.9213 57.7443 57.1865 57.91 57.4161 58.1349C57.6481 58.3598 57.8304 58.6463 57.963 58.9943C58.0956 59.34 58.1618 59.7519 58.1618 60.2301V60.6243H53.691V59.7578H56.9296C56.9272 59.5116 56.874 59.2926 56.7698 59.1009C56.6656 58.9067 56.52 58.754 56.333 58.6428C56.1483 58.5315 55.9329 58.4759 55.6867 58.4759C55.4239 58.4759 55.1931 58.5398 54.9942 58.6676C54.7954 58.7931 54.6403 58.9588 54.529 59.1648C54.4201 59.3684 54.3645 59.5921 54.3621 59.8359V60.5923C54.3621 60.9096 54.4201 61.1818 54.5361 61.4091C54.6521 61.634 54.8143 61.8068 55.0226 61.9276C55.231 62.0459 55.4748 62.1051 55.7542 62.1051C55.9412 62.1051 56.1105 62.0791 56.262 62.027C56.4135 61.9725 56.5449 61.8932 56.6562 61.7891C56.7674 61.6849 56.8515 61.5559 56.9083 61.402L58.1086 61.5369C58.0328 61.8542 57.8884 62.1312 57.6753 62.3679C57.4646 62.6023 57.1948 62.7846 56.8657 62.9148C56.5366 63.0426 56.1602 63.1065 55.7364 63.1065ZM60.5349 59.804V63H59.2494V57.5455H60.4781V58.4723H60.542C60.6675 58.1669 60.8675 57.9242 61.1421 57.7443C61.4191 57.5644 61.7612 57.4744 62.1684 57.4744C62.5448 57.4744 62.8727 57.5549 63.1521 57.7159C63.4338 57.8769 63.6516 58.1101 63.8055 58.4155C63.9617 58.7209 64.0387 59.0914 64.0363 59.527V63H62.7508V59.7259C62.7508 59.3613 62.6561 59.076 62.4667 58.87C62.2797 58.6641 62.0204 58.5611 61.689 58.5611C61.4641 58.5611 61.2641 58.6108 61.0889 58.7102C60.916 58.8073 60.7799 58.9482 60.6805 59.1328C60.5834 59.3175 60.5349 59.5412 60.5349 59.804ZM67.7153 65.1591C67.2536 65.1591 66.8571 65.0964 66.5257 64.9709C66.1942 64.8478 65.9279 64.6821 65.7267 64.4737C65.5254 64.2654 65.3857 64.0346 65.3076 63.7812L66.4653 63.5007C66.5174 63.6072 66.5931 63.7126 66.6926 63.8168C66.792 63.9233 66.9258 64.0109 67.0938 64.0795C67.2643 64.1506 67.4785 64.1861 67.7366 64.1861C68.1012 64.1861 68.403 64.0973 68.6421 63.9197C68.8812 63.7446 69.0008 63.4557 69.0008 63.0533V62.0199H68.9369C68.8706 62.1525 68.7735 62.2886 68.6457 62.4283C68.5202 62.5679 68.3533 62.6851 68.145 62.7798C67.939 62.8745 67.6798 62.9219 67.3673 62.9219C66.9482 62.9219 66.5683 62.8236 66.2274 62.6271C65.8888 62.4283 65.6189 62.1323 65.4177 61.7393C65.2188 61.344 65.1194 60.8492 65.1194 60.255C65.1194 59.656 65.2188 59.1506 65.4177 58.7386C65.6189 58.3243 65.89 58.0107 66.2309 57.7976C66.5718 57.5821 66.9518 57.4744 67.3708 57.4744C67.6904 57.4744 67.9532 57.5289 68.1592 57.6378C68.3675 57.7443 68.5332 57.8733 68.6563 58.0249C68.7794 58.174 68.873 58.3149 68.9369 58.4474H69.0079V57.5455H70.2757V63.0888C70.2757 63.5552 70.1644 63.9411 69.9419 64.2464C69.7193 64.5518 69.4151 64.7803 69.0292 64.9318C68.6433 65.0833 68.2053 65.1591 67.7153 65.1591ZM67.7259 61.9134C67.9982 61.9134 68.2302 61.8471 68.422 61.7145C68.6137 61.5819 68.7593 61.3913 68.8588 61.1428C68.9582 60.8942 69.0079 60.5959 69.0079 60.2479C69.0079 59.9046 68.9582 59.6039 68.8588 59.3459C68.7617 59.0878 68.6173 58.8878 68.4255 58.7457C68.2361 58.6013 68.0029 58.5291 67.7259 58.5291C67.4395 58.5291 67.2004 58.6037 67.0086 58.7528C66.8169 58.902 66.6724 59.1068 66.5754 59.3672C66.4783 59.6252 66.4298 59.9188 66.4298 60.2479C66.4298 60.5817 66.4783 60.8741 66.5754 61.125C66.6748 61.3736 66.8204 61.5677 67.0122 61.7074C67.2063 61.8447 67.4442 61.9134 67.7259 61.9134ZM74.0079 63.1065C73.461 63.1065 72.9887 62.9929 72.591 62.7656C72.1956 62.536 71.8914 62.2116 71.6784 61.7926C71.4653 61.3712 71.3588 60.8752 71.3588 60.3047C71.3588 59.7436 71.4653 59.2512 71.6784 58.8274C71.8938 58.4013 72.1945 58.0698 72.5803 57.8331C72.9662 57.594 73.4196 57.4744 73.9404 57.4744C74.2766 57.4744 74.5938 57.5289 74.8921 57.6378C75.1928 57.7443 75.4579 57.91 75.6876 58.1349C75.9196 58.3598 76.1019 58.6463 76.2345 58.9943C76.367 59.34 76.4333 59.7519 76.4333 60.2301V60.6243H71.9624V59.7578H75.2011C75.1987 59.5116 75.1454 59.2926 75.0413 59.1009C74.9371 58.9067 74.7915 58.754 74.6045 58.6428C74.4198 58.5315 74.2044 58.4759 73.9582 58.4759C73.6954 58.4759 73.4646 58.5398 73.2657 58.6676C73.0669 58.7931 72.9118 58.9588 72.8005 59.1648C72.6916 59.3684 72.636 59.5921 72.6336 59.8359V60.5923C72.6336 60.9096 72.6916 61.1818 72.8076 61.4091C72.9236 61.634 73.0858 61.8068 73.2941 61.9276C73.5025 62.0459 73.7463 62.1051 74.0257 62.1051C74.2127 62.1051 74.382 62.0791 74.5335 62.027C74.685 61.9725 74.8164 61.8932 74.9276 61.7891C75.0389 61.6849 75.123 61.5559 75.1798 61.402L76.3801 61.5369C76.3043 61.8542 76.1599 62.1312 75.9468 62.3679C75.7361 62.6023 75.4662 62.7846 75.1372 62.9148C74.8081 63.0426 74.4317 63.1065 74.0079 63.1065Z" fill="white"/>
</svg>
