<svg width="18" height="19" viewBox="0 0 18 19" fill="none" xmlns="http://www.w3.org/2000/svg">
<path d="M5.175 0.675C5.175 0.302211 4.87279 0 4.5 0C4.12721 0 3.825 0.302211 3.825 0.675V2.09633C2.5296 2.20006 1.67919 2.45463 1.05441 3.07941C0.429634 3.70419 0.17506 4.5546 0.0713348 5.85H17.9286C17.825 4.5546 17.5703 3.70419 16.9456 3.07941C16.3208 2.45463 15.4704 2.20006 14.175 2.09633V0.675C14.175 0.302211 13.8728 0 13.5 0C13.1272 0 12.825 0.302211 12.825 0.675V2.03661C12.2262 2.025 11.5551 2.025 10.8 2.025H7.2C6.44487 2.025 5.77374 2.025 5.175 2.03661V0.675Z" fill="#F7F7F7"/>
<path fill-rule="evenodd" clip-rule="evenodd" d="M0 9.22495C0 8.46985 1.02259e-07 7.79872 0.0116101 7.19995H17.9884C18 7.79872 18 8.46985 18 9.22495V11.025C18 14.419 18 16.1162 16.9456 17.1705C15.8912 18.225 14.1941 18.225 10.8 18.225H7.2C3.80588 18.225 2.10883 18.225 1.05441 17.1705C1.07288e-07 16.1162 0 14.419 0 11.025V9.22495ZM13.5 11.025C13.9971 11.025 14.4 10.622 14.4 10.125C14.4 9.62788 13.9971 9.22495 13.5 9.22495C13.0029 9.22495 12.6 9.62788 12.6 10.125C12.6 10.622 13.0029 11.025 13.5 11.025ZM13.5 14.625C13.9971 14.625 14.4 14.222 14.4 13.725C14.4 13.2279 13.9971 12.825 13.5 12.825C13.0029 12.825 12.6 13.2279 12.6 13.725C12.6 14.222 13.0029 14.625 13.5 14.625ZM9.9 10.125C9.9 10.622 9.49707 11.025 9 11.025C8.50293 11.025 8.1 10.622 8.1 10.125C8.1 9.62788 8.50293 9.22495 9 9.22495C9.49707 9.22495 9.9 9.62788 9.9 10.125ZM9.9 13.725C9.9 14.222 9.49707 14.625 9 14.625C8.50293 14.625 8.1 14.222 8.1 13.725C8.1 13.2279 8.50293 12.825 9 12.825C9.49707 12.825 9.9 13.2279 9.9 13.725ZM4.5 11.025C4.99705 11.025 5.4 10.622 5.4 10.125C5.4 9.62788 4.99705 9.22495 4.5 9.22495C4.00295 9.22495 3.6 9.62788 3.6 10.125C3.6 10.622 4.00295 11.025 4.5 11.025ZM4.5 14.625C4.99705 14.625 5.4 14.222 5.4 13.725C5.4 13.2279 4.99705 12.825 4.5 12.825C4.00295 12.825 3.6 13.2279 3.6 13.725C3.6 14.222 4.00295 14.625 4.5 14.625Z" fill="#F7F7F7"/>
</svg>
