<svg width="2" height="23" viewBox="0 0 2 23" fill="none" xmlns="http://www.w3.org/2000/svg">
<path d="M0.996804 2.08097C0.763849 2.08097 0.563565 1.99858 0.395952 1.83381C0.228338 1.66619 0.144531 1.46449 0.144531 1.22869C0.144531 0.995739 0.228338 0.796875 0.395952 0.632102C0.563565 0.464489 0.763849 0.380682 0.996804 0.380682C1.22976 0.380682 1.43004 0.464489 1.59766 0.632102C1.76527 0.796875 1.84908 0.995739 1.84908 1.22869C1.84908 1.38494 1.8093 1.52841 1.72976 1.65909C1.65305 1.78693 1.55078 1.8892 1.42294 1.96591C1.2951 2.04261 1.15305 2.08097 0.996804 2.08097ZM0.996804 12.081C0.763849 12.081 0.563565 11.9986 0.395952 11.8338C0.228338 11.6662 0.144531 11.4645 0.144531 11.2287C0.144531 10.9957 0.228338 10.7969 0.395952 10.6321C0.563565 10.4645 0.763849 10.3807 0.996804 10.3807C1.22976 10.3807 1.43004 10.4645 1.59766 10.6321C1.76527 10.7969 1.84908 10.9957 1.84908 11.2287C1.84908 11.3849 1.8093 11.5284 1.72976 11.6591C1.65305 11.7869 1.55078 11.8892 1.42294 11.9659C1.2951 12.0426 1.15305 12.081 0.996804 12.081ZM0.996804 22.081C0.763849 22.081 0.563565 21.9986 0.395952 21.8338C0.228338 21.6662 0.144531 21.4645 0.144531 21.2287C0.144531 20.9957 0.228338 20.7969 0.395952 20.6321C0.563565 20.4645 0.763849 20.3807 0.996804 20.3807C1.22976 20.3807 1.43004 20.4645 1.59766 20.6321C1.76527 20.7969 1.84908 20.9957 1.84908 21.2287C1.84908 21.3849 1.8093 21.5284 1.72976 21.6591C1.65305 21.7869 1.55078 21.8892 1.42294 21.9659C1.2951 22.0426 1.15305 22.081 0.996804 22.081Z" fill="#CBCBCB"/>
</svg>
