<svg width="71" height="10" viewBox="0 0 79 18" fill="none" xmlns="http://www.w3.org/2000/svg">
<path d="M10.9412 1L7.64955 17.2263H3.29162L0 1H3.33799L4.61291 8.51047L5.40105 13.3784H5.54013L6.32826 8.51047L7.60319 1H10.9412Z" fill="white"/>
<path d="M38.6988 3.71211L33.205 14.5374H38.7219V17.2263H29.8438V14.5837L35.3144 3.78165H29.8438V1H38.6988V3.71211Z" fill="white"/>
<path d="M40.4058 17.2263V1H43.5815V17.2263H40.4058Z" fill="white"/>
<path d="M45.8161 17.2263V1H48.9918V7.83823H49.1077L52.0052 1H55.2737L51.8893 8.74227L55.4359 17.2263H51.9125L49.154 10.1331H48.9918V17.2263H45.8161Z" fill="white"/>
<path d="M65.0096 17.2263L64.5228 14.6533H60.8603L60.3735 17.2263H57.2209L60.3503 1H65.1487L68.1158 17.2263H65.0096ZM62.6452 4.01346L61.7411 9.41451L61.2312 12.173H64.1287L63.5956 9.41451L62.6915 4.01346H62.6452Z" fill="white"/>
<path d="M75.5693 17.2263H72.1849V11.8253L68.7542 1H71.9068L73.344 5.93744L73.8308 8.78863H73.9235L74.4103 5.93744L75.8475 1H79L75.5693 11.8253V17.2263Z" fill="white"/>
<mask id="path-2-outside-1_302_145" maskUnits="userSpaceOnUse" x="11.7571" y="-0.377441" width="17" height="18" fill="black">
<rect fill="white" x="11.7571" y="-0.377441" width="17" height="18"/>
<path d="M22.7138 1.62256H17.7354C15.9198 1.62256 14.3807 3.02295 13.5133 5.10788C13.5126 5.10949 13.512 5.11109 13.5113 5.11269C13.031 6.26897 12.7571 7.63526 12.7571 9.09009C12.7571 13.1714 14.9119 16.5576 17.7354 16.5576H22.7138C25.5373 16.5576 27.6921 13.1714 27.6921 9.09009C27.6921 5.00873 25.5373 1.62256 22.7138 1.62256ZM15.499 14.0461C15.1837 13.6492 14.9052 13.1712 14.6765 12.6295L15.0377 12.7774C15.1631 12.8288 15.3018 12.8378 15.4328 12.8031L18.1465 12.0847C18.1466 12.0849 18.1466 12.0851 18.1467 12.0853C18.1594 12.1295 18.1725 12.1736 18.1858 12.2174C18.192 12.2379 18.1982 12.2584 18.2045 12.2787C18.2213 12.3329 18.2386 12.3866 18.2563 12.4401C18.2591 12.4486 18.2618 12.4573 18.2646 12.4659C18.2853 12.5276 18.3065 12.5887 18.3282 12.6494C18.3345 12.6669 18.341 12.6842 18.3473 12.7017C18.3633 12.7454 18.3794 12.7889 18.3959 12.8321C18.4038 12.8526 18.4117 12.8729 18.4196 12.8933C18.436 12.9352 18.4526 12.9768 18.4695 13.0182C18.4769 13.0364 18.4843 13.0546 18.4918 13.0727C18.5159 13.1306 18.5403 13.188 18.5654 13.2448C18.5656 13.2453 18.5658 13.2458 18.5661 13.2463C18.5775 13.2721 18.5893 13.2976 18.601 13.3232L15.499 14.0461ZM15.2915 4.41474L16.0508 5.17407C16.1979 5.3212 16.4089 5.38506 16.6129 5.34425L18.5568 4.95532C18.5348 5.00564 18.5131 5.05637 18.4918 5.1075C18.4843 5.12556 18.477 5.14379 18.4696 5.16193C18.4526 5.20335 18.436 5.24498 18.4196 5.28693C18.4117 5.30726 18.4038 5.32759 18.396 5.34804C18.3795 5.39127 18.3633 5.43482 18.3473 5.4786C18.341 5.49599 18.3345 5.51326 18.3283 5.53073C18.3065 5.59146 18.2853 5.65263 18.2647 5.71436C18.2618 5.72284 18.2592 5.73151 18.2563 5.74003C18.2386 5.79349 18.2214 5.84731 18.2045 5.90151C18.1982 5.92187 18.192 5.94238 18.1858 5.96285C18.1744 6.00028 18.1632 6.03782 18.1522 6.07557L16.0758 6.53937L14.822 5.22786C14.9639 4.93368 15.1213 4.66175 15.2915 4.41474ZM15.4189 7.65323C15.5695 7.81081 15.7916 7.87804 16.0043 7.83052L17.8593 7.41619C17.8584 7.42182 17.8577 7.42754 17.8568 7.43317C17.8542 7.45105 17.8518 7.46908 17.8492 7.48699C17.8418 7.53874 17.8346 7.59063 17.8279 7.64276C17.8248 7.66647 17.8219 7.69028 17.819 7.71408C17.813 7.76273 17.8074 7.81156 17.8021 7.86051C17.7996 7.88338 17.797 7.90619 17.7947 7.92909C17.7884 7.99011 17.7826 8.05134 17.7773 8.1128C17.7765 8.12257 17.7755 8.13229 17.7747 8.14206C17.7688 8.21312 17.7636 8.2845 17.759 8.35611C17.7579 8.37402 17.7569 8.39202 17.7559 8.40996L15.4429 9.01734L14.1086 7.62161C14.165 7.24027 14.2427 6.87325 14.3394 6.52406L15.4189 7.65323ZM14.7966 10.1424C14.9529 10.3059 15.1856 10.3717 15.4044 10.3143L17.7517 9.69787C17.7529 9.71917 17.7542 9.74037 17.7554 9.76164C17.7566 9.78244 17.7577 9.80329 17.759 9.82403C17.7636 9.89565 17.7688 9.96702 17.7747 10.0381C17.7755 10.0479 17.7765 10.0576 17.7773 10.0673C17.7826 10.1288 17.7884 10.1901 17.7947 10.2511C17.797 10.274 17.7996 10.2968 17.8021 10.3197C17.8074 10.3686 17.813 10.4174 17.819 10.4661C17.8219 10.4899 17.8248 10.5137 17.8279 10.5374C17.8346 10.5895 17.8418 10.6414 17.8492 10.6932C17.8518 10.7111 17.8542 10.7291 17.8568 10.747C17.8629 10.7878 17.8694 10.8284 17.876 10.8689L15.3161 11.5466L14.2028 11.0907C14.0867 10.5316 14.0178 9.93532 14.0044 9.31379L14.7966 10.1424ZM19.9394 2.86716C19.9337 2.87284 19.9282 2.87885 19.9225 2.88457C19.8938 2.91354 19.8654 2.943 19.8372 2.97281C19.8276 2.98296 19.8178 2.99291 19.8083 3.00318C19.771 3.0432 19.734 3.08395 19.6975 3.12546C19.6897 3.13435 19.682 3.14351 19.6743 3.15247C19.6455 3.18563 19.6169 3.21918 19.5886 3.25325C19.5767 3.2676 19.5649 3.28216 19.5531 3.29668C19.5285 3.32693 19.5041 3.3575 19.4799 3.38845C19.4683 3.40327 19.4566 3.41803 19.4452 3.43303C19.4227 3.46225 19.4005 3.49189 19.3785 3.5217L16.6954 4.05855L16.1278 3.49102C16.6207 3.09089 17.1682 2.86721 17.7354 2.86721H19.9394V2.86716ZM19.9394 15.313H17.7354C17.3716 15.313 17.016 15.2208 16.6777 15.0494L19.121 14.48C19.1579 14.4714 19.1931 14.4595 19.2267 14.4451C19.232 14.4529 19.2373 14.4608 19.2427 14.4686C19.2754 14.5163 19.3085 14.5633 19.3421 14.6096C19.3492 14.6194 19.3565 14.6289 19.3637 14.6386C19.3905 14.6752 19.4177 14.7114 19.4451 14.7472C19.4566 14.7622 19.4683 14.777 19.4799 14.7919C19.5041 14.8228 19.5284 14.8533 19.553 14.8835C19.5649 14.898 19.5767 14.9126 19.5887 14.927C19.6169 14.9611 19.6454 14.9945 19.6741 15.0276C19.682 15.0366 19.6897 15.0459 19.6975 15.0548C19.734 15.0963 19.7709 15.137 19.8082 15.177C19.8179 15.1874 19.8276 15.1973 19.8373 15.2075C19.8655 15.2373 19.8938 15.2667 19.9225 15.2956C19.9282 15.3013 19.9337 15.3073 19.9394 15.313ZM22.7138 15.313C20.7258 15.313 18.98 12.5697 18.98 9.09009C18.98 8.26761 19.0777 7.48635 19.2529 6.77264C19.2565 6.76031 19.2595 6.74779 19.2623 6.73519C19.4816 5.85866 19.8181 5.08539 20.2351 4.46529C20.2507 4.4452 20.2653 4.42425 20.2783 4.4024C20.9429 3.44347 21.8029 2.86716 22.7138 2.86716C24.7018 2.86716 26.4476 5.61051 26.4476 9.09009C26.4476 12.5697 24.7018 15.313 22.7138 15.313Z"/>
</mask>
<path d="M22.7138 1.62256H17.7354C15.9198 1.62256 14.3807 3.02295 13.5133 5.10788C13.5126 5.10949 13.512 5.11109 13.5113 5.11269C13.031 6.26897 12.7571 7.63526 12.7571 9.09009C12.7571 13.1714 14.9119 16.5576 17.7354 16.5576H22.7138C25.5373 16.5576 27.6921 13.1714 27.6921 9.09009C27.6921 5.00873 25.5373 1.62256 22.7138 1.62256ZM15.499 14.0461C15.1837 13.6492 14.9052 13.1712 14.6765 12.6295L15.0377 12.7774C15.1631 12.8288 15.3018 12.8378 15.4328 12.8031L18.1465 12.0847C18.1466 12.0849 18.1466 12.0851 18.1467 12.0853C18.1594 12.1295 18.1725 12.1736 18.1858 12.2174C18.192 12.2379 18.1982 12.2584 18.2045 12.2787C18.2213 12.3329 18.2386 12.3866 18.2563 12.4401C18.2591 12.4486 18.2618 12.4573 18.2646 12.4659C18.2853 12.5276 18.3065 12.5887 18.3282 12.6494C18.3345 12.6669 18.341 12.6842 18.3473 12.7017C18.3633 12.7454 18.3794 12.7889 18.3959 12.8321C18.4038 12.8526 18.4117 12.8729 18.4196 12.8933C18.436 12.9352 18.4526 12.9768 18.4695 13.0182C18.4769 13.0364 18.4843 13.0546 18.4918 13.0727C18.5159 13.1306 18.5403 13.188 18.5654 13.2448C18.5656 13.2453 18.5658 13.2458 18.5661 13.2463C18.5775 13.2721 18.5893 13.2976 18.601 13.3232L15.499 14.0461ZM15.2915 4.41474L16.0508 5.17407C16.1979 5.3212 16.4089 5.38506 16.6129 5.34425L18.5568 4.95532C18.5348 5.00564 18.5131 5.05637 18.4918 5.1075C18.4843 5.12556 18.477 5.14379 18.4696 5.16193C18.4526 5.20335 18.436 5.24498 18.4196 5.28693C18.4117 5.30726 18.4038 5.32759 18.396 5.34804C18.3795 5.39127 18.3633 5.43482 18.3473 5.4786C18.341 5.49599 18.3345 5.51326 18.3283 5.53073C18.3065 5.59146 18.2853 5.65263 18.2647 5.71436C18.2618 5.72284 18.2592 5.73151 18.2563 5.74003C18.2386 5.79349 18.2214 5.84731 18.2045 5.90151C18.1982 5.92187 18.192 5.94238 18.1858 5.96285C18.1744 6.00028 18.1632 6.03782 18.1522 6.07557L16.0758 6.53937L14.822 5.22786C14.9639 4.93368 15.1213 4.66175 15.2915 4.41474ZM15.4189 7.65323C15.5695 7.81081 15.7916 7.87804 16.0043 7.83052L17.8593 7.41619C17.8584 7.42182 17.8577 7.42754 17.8568 7.43317C17.8542 7.45105 17.8518 7.46908 17.8492 7.48699C17.8418 7.53874 17.8346 7.59063 17.8279 7.64276C17.8248 7.66647 17.8219 7.69028 17.819 7.71408C17.813 7.76273 17.8074 7.81156 17.8021 7.86051C17.7996 7.88338 17.797 7.90619 17.7947 7.92909C17.7884 7.99011 17.7826 8.05134 17.7773 8.1128C17.7765 8.12257 17.7755 8.13229 17.7747 8.14206C17.7688 8.21312 17.7636 8.2845 17.759 8.35611C17.7579 8.37402 17.7569 8.39202 17.7559 8.40996L15.4429 9.01734L14.1086 7.62161C14.165 7.24027 14.2427 6.87325 14.3394 6.52406L15.4189 7.65323ZM14.7966 10.1424C14.9529 10.3059 15.1856 10.3717 15.4044 10.3143L17.7517 9.69787C17.7529 9.71917 17.7542 9.74037 17.7554 9.76164C17.7566 9.78244 17.7577 9.80329 17.759 9.82403C17.7636 9.89565 17.7688 9.96702 17.7747 10.0381C17.7755 10.0479 17.7765 10.0576 17.7773 10.0673C17.7826 10.1288 17.7884 10.1901 17.7947 10.2511C17.797 10.274 17.7996 10.2968 17.8021 10.3197C17.8074 10.3686 17.813 10.4174 17.819 10.4661C17.8219 10.4899 17.8248 10.5137 17.8279 10.5374C17.8346 10.5895 17.8418 10.6414 17.8492 10.6932C17.8518 10.7111 17.8542 10.7291 17.8568 10.747C17.8629 10.7878 17.8694 10.8284 17.876 10.8689L15.3161 11.5466L14.2028 11.0907C14.0867 10.5316 14.0178 9.93532 14.0044 9.31379L14.7966 10.1424ZM19.9394 2.86716C19.9337 2.87284 19.9282 2.87885 19.9225 2.88457C19.8938 2.91354 19.8654 2.943 19.8372 2.97281C19.8276 2.98296 19.8178 2.99291 19.8083 3.00318C19.771 3.0432 19.734 3.08395 19.6975 3.12546C19.6897 3.13435 19.682 3.14351 19.6743 3.15247C19.6455 3.18563 19.6169 3.21918 19.5886 3.25325C19.5767 3.2676 19.5649 3.28216 19.5531 3.29668C19.5285 3.32693 19.5041 3.3575 19.4799 3.38845C19.4683 3.40327 19.4566 3.41803 19.4452 3.43303C19.4227 3.46225 19.4005 3.49189 19.3785 3.5217L16.6954 4.05855L16.1278 3.49102C16.6207 3.09089 17.1682 2.86721 17.7354 2.86721H19.9394V2.86716ZM19.9394 15.313H17.7354C17.3716 15.313 17.016 15.2208 16.6777 15.0494L19.121 14.48C19.1579 14.4714 19.1931 14.4595 19.2267 14.4451C19.232 14.4529 19.2373 14.4608 19.2427 14.4686C19.2754 14.5163 19.3085 14.5633 19.3421 14.6096C19.3492 14.6194 19.3565 14.6289 19.3637 14.6386C19.3905 14.6752 19.4177 14.7114 19.4451 14.7472C19.4566 14.7622 19.4683 14.777 19.4799 14.7919C19.5041 14.8228 19.5284 14.8533 19.553 14.8835C19.5649 14.898 19.5767 14.9126 19.5887 14.927C19.6169 14.9611 19.6454 14.9945 19.6741 15.0276C19.682 15.0366 19.6897 15.0459 19.6975 15.0548C19.734 15.0963 19.7709 15.137 19.8082 15.177C19.8179 15.1874 19.8276 15.1973 19.8373 15.2075C19.8655 15.2373 19.8938 15.2667 19.9225 15.2956C19.9282 15.3013 19.9337 15.3073 19.9394 15.313ZM22.7138 15.313C20.7258 15.313 18.98 12.5697 18.98 9.09009C18.98 8.26761 19.0777 7.48635 19.2529 6.77264C19.2565 6.76031 19.2595 6.74779 19.2623 6.73519C19.4816 5.85866 19.8181 5.08539 20.2351 4.46529C20.2507 4.4452 20.2653 4.42425 20.2783 4.4024C20.9429 3.44347 21.8029 2.86716 22.7138 2.86716C24.7018 2.86716 26.4476 5.61051 26.4476 9.09009C26.4476 12.5697 24.7018 15.313 22.7138 15.313Z" fill="#FF1313"/>
<path d="M22.7138 1.62256H17.7354C15.9198 1.62256 14.3807 3.02295 13.5133 5.10788C13.5126 5.10949 13.512 5.11109 13.5113 5.11269C13.031 6.26897 12.7571 7.63526 12.7571 9.09009C12.7571 13.1714 14.9119 16.5576 17.7354 16.5576H22.7138C25.5373 16.5576 27.6921 13.1714 27.6921 9.09009C27.6921 5.00873 25.5373 1.62256 22.7138 1.62256ZM15.499 14.0461C15.1837 13.6492 14.9052 13.1712 14.6765 12.6295L15.0377 12.7774C15.1631 12.8288 15.3018 12.8378 15.4328 12.8031L18.1465 12.0847C18.1466 12.0849 18.1466 12.0851 18.1467 12.0853C18.1594 12.1295 18.1725 12.1736 18.1858 12.2174C18.192 12.2379 18.1982 12.2584 18.2045 12.2787C18.2213 12.3329 18.2386 12.3866 18.2563 12.4401C18.2591 12.4486 18.2618 12.4573 18.2646 12.4659C18.2853 12.5276 18.3065 12.5887 18.3282 12.6494C18.3345 12.6669 18.341 12.6842 18.3473 12.7017C18.3633 12.7454 18.3794 12.7889 18.3959 12.8321C18.4038 12.8526 18.4117 12.8729 18.4196 12.8933C18.436 12.9352 18.4526 12.9768 18.4695 13.0182C18.4769 13.0364 18.4843 13.0546 18.4918 13.0727C18.5159 13.1306 18.5403 13.188 18.5654 13.2448C18.5656 13.2453 18.5658 13.2458 18.5661 13.2463C18.5775 13.2721 18.5893 13.2976 18.601 13.3232L15.499 14.0461ZM15.2915 4.41474L16.0508 5.17407C16.1979 5.3212 16.4089 5.38506 16.6129 5.34425L18.5568 4.95532C18.5348 5.00564 18.5131 5.05637 18.4918 5.1075C18.4843 5.12556 18.477 5.14379 18.4696 5.16193C18.4526 5.20335 18.436 5.24498 18.4196 5.28693C18.4117 5.30726 18.4038 5.32759 18.396 5.34804C18.3795 5.39127 18.3633 5.43482 18.3473 5.4786C18.341 5.49599 18.3345 5.51326 18.3283 5.53073C18.3065 5.59146 18.2853 5.65263 18.2647 5.71436C18.2618 5.72284 18.2592 5.73151 18.2563 5.74003C18.2386 5.79349 18.2214 5.84731 18.2045 5.90151C18.1982 5.92187 18.192 5.94238 18.1858 5.96285C18.1744 6.00028 18.1632 6.03782 18.1522 6.07557L16.0758 6.53937L14.822 5.22786C14.9639 4.93368 15.1213 4.66175 15.2915 4.41474ZM15.4189 7.65323C15.5695 7.81081 15.7916 7.87804 16.0043 7.83052L17.8593 7.41619C17.8584 7.42182 17.8577 7.42754 17.8568 7.43317C17.8542 7.45105 17.8518 7.46908 17.8492 7.48699C17.8418 7.53874 17.8346 7.59063 17.8279 7.64276C17.8248 7.66647 17.8219 7.69028 17.819 7.71408C17.813 7.76273 17.8074 7.81156 17.8021 7.86051C17.7996 7.88338 17.797 7.90619 17.7947 7.92909C17.7884 7.99011 17.7826 8.05134 17.7773 8.1128C17.7765 8.12257 17.7755 8.13229 17.7747 8.14206C17.7688 8.21312 17.7636 8.2845 17.759 8.35611C17.7579 8.37402 17.7569 8.39202 17.7559 8.40996L15.4429 9.01734L14.1086 7.62161C14.165 7.24027 14.2427 6.87325 14.3394 6.52406L15.4189 7.65323ZM14.7966 10.1424C14.9529 10.3059 15.1856 10.3717 15.4044 10.3143L17.7517 9.69787C17.7529 9.71917 17.7542 9.74037 17.7554 9.76164C17.7566 9.78244 17.7577 9.80329 17.759 9.82403C17.7636 9.89565 17.7688 9.96702 17.7747 10.0381C17.7755 10.0479 17.7765 10.0576 17.7773 10.0673C17.7826 10.1288 17.7884 10.1901 17.7947 10.2511C17.797 10.274 17.7996 10.2968 17.8021 10.3197C17.8074 10.3686 17.813 10.4174 17.819 10.4661C17.8219 10.4899 17.8248 10.5137 17.8279 10.5374C17.8346 10.5895 17.8418 10.6414 17.8492 10.6932C17.8518 10.7111 17.8542 10.7291 17.8568 10.747C17.8629 10.7878 17.8694 10.8284 17.876 10.8689L15.3161 11.5466L14.2028 11.0907C14.0867 10.5316 14.0178 9.93532 14.0044 9.31379L14.7966 10.1424ZM19.9394 2.86716C19.9337 2.87284 19.9282 2.87885 19.9225 2.88457C19.8938 2.91354 19.8654 2.943 19.8372 2.97281C19.8276 2.98296 19.8178 2.99291 19.8083 3.00318C19.771 3.0432 19.734 3.08395 19.6975 3.12546C19.6897 3.13435 19.682 3.14351 19.6743 3.15247C19.6455 3.18563 19.6169 3.21918 19.5886 3.25325C19.5767 3.2676 19.5649 3.28216 19.5531 3.29668C19.5285 3.32693 19.5041 3.3575 19.4799 3.38845C19.4683 3.40327 19.4566 3.41803 19.4452 3.43303C19.4227 3.46225 19.4005 3.49189 19.3785 3.5217L16.6954 4.05855L16.1278 3.49102C16.6207 3.09089 17.1682 2.86721 17.7354 2.86721H19.9394V2.86716ZM19.9394 15.313H17.7354C17.3716 15.313 17.016 15.2208 16.6777 15.0494L19.121 14.48C19.1579 14.4714 19.1931 14.4595 19.2267 14.4451C19.232 14.4529 19.2373 14.4608 19.2427 14.4686C19.2754 14.5163 19.3085 14.5633 19.3421 14.6096C19.3492 14.6194 19.3565 14.6289 19.3637 14.6386C19.3905 14.6752 19.4177 14.7114 19.4451 14.7472C19.4566 14.7622 19.4683 14.777 19.4799 14.7919C19.5041 14.8228 19.5284 14.8533 19.553 14.8835C19.5649 14.898 19.5767 14.9126 19.5887 14.927C19.6169 14.9611 19.6454 14.9945 19.6741 15.0276C19.682 15.0366 19.6897 15.0459 19.6975 15.0548C19.734 15.0963 19.7709 15.137 19.8082 15.177C19.8179 15.1874 19.8276 15.1973 19.8373 15.2075C19.8655 15.2373 19.8938 15.2667 19.9225 15.2956C19.9282 15.3013 19.9337 15.3073 19.9394 15.313ZM22.7138 15.313C20.7258 15.313 18.98 12.5697 18.98 9.09009C18.98 8.26761 19.0777 7.48635 19.2529 6.77264C19.2565 6.76031 19.2595 6.74779 19.2623 6.73519C19.4816 5.85866 19.8181 5.08539 20.2351 4.46529C20.2507 4.4452 20.2653 4.42425 20.2783 4.4024C20.9429 3.44347 21.8029 2.86716 22.7138 2.86716C24.7018 2.86716 26.4476 5.61051 26.4476 9.09009C26.4476 12.5697 24.7018 15.313 22.7138 15.313Z" stroke="white" stroke-width="2" mask="url(#path-2-outside-1_302_145)"/>
<path d="M23.0023 6.45208L23.0023 6.45205C22.8977 6.20799 22.7955 6.04199 22.7138 5.9399C22.632 6.042 22.5298 6.208 22.4252 6.45207C22.1462 7.10297 21.9692 8.04686 21.9692 9.09018C21.9692 10.1335 22.1462 11.0773 22.4252 11.7283C22.5298 11.9724 22.632 12.1384 22.7138 12.2405C22.7955 12.1384 22.8977 11.9724 23.0024 11.7283L23.0023 6.45208ZM23.0023 6.45208C23.2813 7.10297 23.4584 8.04686 23.4584 9.09018M23.0023 6.45208L23.4584 9.09018M23.4584 9.09018C23.4584 10.1335 23.2813 11.0774 23.0024 11.7283L23.4584 9.09018ZM22.7138 3.61182C21.6677 3.61182 20.9137 4.39342 20.4484 5.36757C19.9751 6.35853 19.7246 7.68184 19.7246 9.09018C19.7246 10.4985 19.9751 11.8218 20.4484 12.8128C20.9137 13.7869 21.6677 14.5685 22.7138 14.5685C23.7599 14.5685 24.5138 13.787 24.9791 12.8128C25.4525 11.8218 25.7029 10.4985 25.7029 9.09018C25.7029 7.68183 25.4525 6.35851 24.9791 5.36756C24.5138 4.3934 23.7599 3.61182 22.7138 3.61182Z" fill="#FF1313" stroke="white"/>
</svg>
