<svg width="79" height="18" viewBox="0 0 79 18" fill="none" xmlns="http://www.w3.org/2000/svg">
<path d="M10.9412 1L7.64955 17.2263H3.29162L0 1H3.33799L4.61291 8.51047L5.40105 13.3784H5.54013L6.32826 8.51047L7.60319 1H10.9412Z" fill="white"/>
<path d="M38.6988 3.71211L33.205 14.5374H38.7219V17.2263H29.8438V14.5837L35.3144 3.78165H29.8438V1H38.6988V3.71211Z" fill="white"/>
<path d="M40.4058 17.2263V1H43.5815V17.2263H40.4058Z" fill="white"/>
<path d="M45.8161 17.2263V1H48.9918V7.83823H49.1077L52.0052 1H55.2737L51.8893 8.74227L55.4359 17.2263H51.9125L49.154 10.1331H48.9918V17.2263H45.8161Z" fill="white"/>
<path d="M65.0096 17.2263L64.5228 14.6533H60.8603L60.3735 17.2263H57.2209L60.3503 1H65.1487L68.1158 17.2263H65.0096ZM62.6452 4.01346L61.7411 9.4145L61.2312 12.173H64.1287L63.5956 9.4145L62.6915 4.01346H62.6452Z" fill="white"/>
<path d="M75.5693 17.2263H72.1849V11.8253L68.7542 1H71.9068L73.344 5.93744L73.8308 8.78863H73.9235L74.4103 5.93744L75.8475 1H79L75.5693 11.8253V17.2263Z" fill="white"/>
<mask id="path-2-outside-1_235_4" maskUnits="userSpaceOnUse" x="11.757" y="-0.377686" width="17" height="18" fill="black">
<rect fill="white" x="11.757" y="-0.377686" width="17" height="18"/>
<path d="M22.7137 1.62231H17.7354C15.9197 1.62231 14.3807 3.02271 13.5132 5.10764C13.5125 5.10924 13.5119 5.11085 13.5113 5.11245C13.031 6.26872 12.757 7.63502 12.757 9.08984C12.757 13.1712 14.9118 16.5574 17.7354 16.5574H22.7138C25.5373 16.5574 27.6921 13.1712 27.6921 9.08984C27.6921 5.00849 25.5373 1.62231 22.7137 1.62231ZM15.499 14.0459C15.1837 13.649 14.9051 13.171 14.6764 12.6293L15.0376 12.7772C15.163 12.8285 15.3017 12.8375 15.4327 12.8029L18.1465 12.0845C18.1465 12.0847 18.1466 12.0849 18.1466 12.0851C18.1594 12.1293 18.1724 12.1733 18.1857 12.2171C18.192 12.2376 18.1981 12.2581 18.2044 12.2785C18.2213 12.3326 18.2385 12.3864 18.2562 12.4398C18.259 12.4484 18.2617 12.4571 18.2646 12.4656C18.2852 12.5273 18.3064 12.5885 18.3282 12.6492C18.3345 12.6667 18.3409 12.684 18.3473 12.7014C18.3632 12.7451 18.3794 12.7886 18.3959 12.8318C18.4037 12.8523 18.4116 12.8727 18.4195 12.893C18.4359 12.9349 18.4526 12.9765 18.4695 13.0179C18.4769 13.0361 18.4842 13.0544 18.4917 13.0725C18.5158 13.1303 18.5402 13.1878 18.5654 13.2446C18.5656 13.2451 18.5658 13.2456 18.566 13.246C18.5774 13.2719 18.5893 13.2973 18.6009 13.323L15.499 14.0459ZM15.2914 4.4145L16.0508 5.17382C16.1979 5.32096 16.4089 5.38481 16.6129 5.344L18.5568 4.95508C18.5347 5.0054 18.513 5.05612 18.4917 5.10726C18.4842 5.12531 18.4769 5.14355 18.4695 5.16169C18.4526 5.20311 18.4359 5.24474 18.4195 5.28668C18.4116 5.30701 18.4037 5.32735 18.3959 5.34779C18.3794 5.39102 18.3632 5.43457 18.3473 5.47836C18.3409 5.49574 18.3345 5.51301 18.3282 5.53049C18.3065 5.59122 18.2852 5.65239 18.2646 5.71411C18.2618 5.7226 18.2591 5.73126 18.2563 5.73978C18.2386 5.79325 18.2213 5.84707 18.2044 5.90127C18.1981 5.92163 18.192 5.94213 18.1857 5.96261C18.1744 6.00004 18.1631 6.03758 18.1521 6.07532L16.0757 6.53913L14.8219 5.22761C14.9638 4.93343 15.1213 4.66151 15.2914 4.4145ZM15.4188 7.65299C15.5695 7.81056 15.7916 7.8778 16.0043 7.83028L17.8592 7.41595C17.8584 7.42158 17.8576 7.4273 17.8568 7.43293C17.8541 7.45081 17.8517 7.46883 17.8492 7.48674C17.8417 7.53849 17.8346 7.59039 17.8278 7.64251C17.8248 7.66623 17.8218 7.69003 17.8189 7.71383C17.813 7.76249 17.8074 7.81132 17.802 7.86027C17.7995 7.88314 17.797 7.90595 17.7946 7.92885C17.7883 7.98987 17.7826 8.0511 17.7773 8.11256C17.7764 8.12233 17.7754 8.13204 17.7746 8.14182C17.7687 8.21287 17.7636 8.28425 17.759 8.35587C17.7578 8.37378 17.7569 8.39177 17.7558 8.40971L15.4428 9.01709L14.1085 7.62136C14.1649 7.24002 14.2426 6.87301 14.3394 6.52381L15.4188 7.65299ZM14.7965 10.1422C14.9528 10.3057 15.1856 10.3715 15.4044 10.314L17.7517 9.69763C17.7528 9.71892 17.7541 9.74013 17.7553 9.76139C17.7566 9.78219 17.7576 9.80305 17.759 9.82379C17.7636 9.8954 17.7687 9.96678 17.7746 10.0378C17.7754 10.0476 17.7765 10.0573 17.7773 10.0671C17.7826 10.1286 17.7883 10.1898 17.7946 10.2508C17.797 10.2737 17.7995 10.2965 17.802 10.3194C17.8074 10.3684 17.813 10.4172 17.8189 10.4658C17.8218 10.4896 17.8248 10.5134 17.8278 10.5372C17.8346 10.5893 17.8417 10.6412 17.8492 10.6929C17.8517 10.7108 17.8541 10.7289 17.8568 10.7468C17.8629 10.7876 17.8694 10.8281 17.8759 10.8687L15.3161 11.5463L14.2027 11.0904C14.0867 10.5314 14.0178 9.93507 14.0043 9.31355L14.7965 10.1422ZM19.9393 2.86691C19.9336 2.8726 19.9281 2.87861 19.9225 2.88433C19.8938 2.91329 19.8654 2.94275 19.8371 2.97257C19.8275 2.98272 19.8178 2.99266 19.8082 3.00293C19.7709 3.04295 19.7339 3.0837 19.6975 3.12521C19.6896 3.13411 19.682 3.14327 19.6742 3.15222C19.6454 3.18539 19.6169 3.21894 19.5886 3.25301C19.5767 3.26736 19.5649 3.28191 19.5531 3.29644C19.5284 3.32669 19.504 3.35726 19.4798 3.38821C19.4682 3.40303 19.4566 3.41779 19.4451 3.43278C19.4227 3.46201 19.4005 3.49165 19.3784 3.52146L16.6953 4.0583L16.1278 3.49077C16.6207 3.09065 17.1681 2.86697 17.7354 2.86697H19.9393V2.86691ZM19.9393 15.3128H17.7354C17.3716 15.3128 17.016 15.2205 16.6776 15.0491L19.121 14.4797C19.1578 14.4712 19.1931 14.4593 19.2266 14.4448C19.232 14.4527 19.2372 14.4606 19.2426 14.4684C19.2753 14.516 19.3085 14.563 19.3421 14.6093C19.3492 14.6191 19.3565 14.6286 19.3636 14.6384C19.3905 14.675 19.4176 14.7112 19.445 14.7469C19.4566 14.762 19.4682 14.7768 19.4798 14.7916C19.504 14.8225 19.5284 14.8531 19.553 14.8832C19.5648 14.8978 19.5767 14.9124 19.5886 14.9268C19.6168 14.9608 19.6454 14.9943 19.6741 15.0274C19.6819 15.0364 19.6896 15.0456 19.6975 15.0546C19.734 15.0961 19.7709 15.1368 19.8082 15.1768C19.8178 15.1871 19.8276 15.1971 19.8373 15.2073C19.8654 15.237 19.8938 15.2665 19.9224 15.2954C19.9281 15.301 19.9336 15.3071 19.9393 15.3128ZM22.7137 15.3128C20.7257 15.3128 18.98 12.5694 18.98 9.08984C18.98 8.26736 19.0776 7.4861 19.2528 6.7724C19.2564 6.76006 19.2595 6.74755 19.2623 6.73495C19.4816 5.85842 19.8181 5.08515 20.2351 4.46505C20.2507 4.44495 20.2652 4.42401 20.2783 4.40216C20.9429 3.44322 21.8028 2.86691 22.7138 2.86691C24.7017 2.86691 26.4475 5.61027 26.4475 9.08984C26.4475 12.5694 24.7017 15.3128 22.7137 15.3128Z"/>
</mask>
<path d="M22.7137 1.62231H17.7354C15.9197 1.62231 14.3807 3.02271 13.5132 5.10764C13.5125 5.10924 13.5119 5.11085 13.5113 5.11245C13.031 6.26872 12.757 7.63502 12.757 9.08984C12.757 13.1712 14.9118 16.5574 17.7354 16.5574H22.7138C25.5373 16.5574 27.6921 13.1712 27.6921 9.08984C27.6921 5.00849 25.5373 1.62231 22.7137 1.62231ZM15.499 14.0459C15.1837 13.649 14.9051 13.171 14.6764 12.6293L15.0376 12.7772C15.163 12.8285 15.3017 12.8375 15.4327 12.8029L18.1465 12.0845C18.1465 12.0847 18.1466 12.0849 18.1466 12.0851C18.1594 12.1293 18.1724 12.1733 18.1857 12.2171C18.192 12.2376 18.1981 12.2581 18.2044 12.2785C18.2213 12.3326 18.2385 12.3864 18.2562 12.4398C18.259 12.4484 18.2617 12.4571 18.2646 12.4656C18.2852 12.5273 18.3064 12.5885 18.3282 12.6492C18.3345 12.6667 18.3409 12.684 18.3473 12.7014C18.3632 12.7451 18.3794 12.7886 18.3959 12.8318C18.4037 12.8523 18.4116 12.8727 18.4195 12.893C18.4359 12.9349 18.4526 12.9765 18.4695 13.0179C18.4769 13.0361 18.4842 13.0544 18.4917 13.0725C18.5158 13.1303 18.5402 13.1878 18.5654 13.2446C18.5656 13.2451 18.5658 13.2456 18.566 13.246C18.5774 13.2719 18.5893 13.2973 18.6009 13.323L15.499 14.0459ZM15.2914 4.4145L16.0508 5.17382C16.1979 5.32096 16.4089 5.38481 16.6129 5.344L18.5568 4.95508C18.5347 5.0054 18.513 5.05612 18.4917 5.10726C18.4842 5.12531 18.4769 5.14355 18.4695 5.16169C18.4526 5.20311 18.4359 5.24474 18.4195 5.28668C18.4116 5.30701 18.4037 5.32735 18.3959 5.34779C18.3794 5.39102 18.3632 5.43457 18.3473 5.47836C18.3409 5.49574 18.3345 5.51301 18.3282 5.53049C18.3065 5.59122 18.2852 5.65239 18.2646 5.71411C18.2618 5.7226 18.2591 5.73126 18.2563 5.73978C18.2386 5.79325 18.2213 5.84707 18.2044 5.90127C18.1981 5.92163 18.192 5.94213 18.1857 5.96261C18.1744 6.00004 18.1631 6.03758 18.1521 6.07532L16.0757 6.53913L14.8219 5.22761C14.9638 4.93343 15.1213 4.66151 15.2914 4.4145ZM15.4188 7.65299C15.5695 7.81056 15.7916 7.8778 16.0043 7.83028L17.8592 7.41595C17.8584 7.42158 17.8576 7.4273 17.8568 7.43293C17.8541 7.45081 17.8517 7.46883 17.8492 7.48674C17.8417 7.53849 17.8346 7.59039 17.8278 7.64251C17.8248 7.66623 17.8218 7.69003 17.8189 7.71383C17.813 7.76249 17.8074 7.81132 17.802 7.86027C17.7995 7.88314 17.797 7.90595 17.7946 7.92885C17.7883 7.98987 17.7826 8.0511 17.7773 8.11256C17.7764 8.12233 17.7754 8.13204 17.7746 8.14182C17.7687 8.21287 17.7636 8.28425 17.759 8.35587C17.7578 8.37378 17.7569 8.39177 17.7558 8.40971L15.4428 9.01709L14.1085 7.62136C14.1649 7.24002 14.2426 6.87301 14.3394 6.52381L15.4188 7.65299ZM14.7965 10.1422C14.9528 10.3057 15.1856 10.3715 15.4044 10.314L17.7517 9.69763C17.7528 9.71892 17.7541 9.74013 17.7553 9.76139C17.7566 9.78219 17.7576 9.80305 17.759 9.82379C17.7636 9.8954 17.7687 9.96678 17.7746 10.0378C17.7754 10.0476 17.7765 10.0573 17.7773 10.0671C17.7826 10.1286 17.7883 10.1898 17.7946 10.2508C17.797 10.2737 17.7995 10.2965 17.802 10.3194C17.8074 10.3684 17.813 10.4172 17.8189 10.4658C17.8218 10.4896 17.8248 10.5134 17.8278 10.5372C17.8346 10.5893 17.8417 10.6412 17.8492 10.6929C17.8517 10.7108 17.8541 10.7289 17.8568 10.7468C17.8629 10.7876 17.8694 10.8281 17.8759 10.8687L15.3161 11.5463L14.2027 11.0904C14.0867 10.5314 14.0178 9.93507 14.0043 9.31355L14.7965 10.1422ZM19.9393 2.86691C19.9336 2.8726 19.9281 2.87861 19.9225 2.88433C19.8938 2.91329 19.8654 2.94275 19.8371 2.97257C19.8275 2.98272 19.8178 2.99266 19.8082 3.00293C19.7709 3.04295 19.7339 3.0837 19.6975 3.12521C19.6896 3.13411 19.682 3.14327 19.6742 3.15222C19.6454 3.18539 19.6169 3.21894 19.5886 3.25301C19.5767 3.26736 19.5649 3.28191 19.5531 3.29644C19.5284 3.32669 19.504 3.35726 19.4798 3.38821C19.4682 3.40303 19.4566 3.41779 19.4451 3.43278C19.4227 3.46201 19.4005 3.49165 19.3784 3.52146L16.6953 4.0583L16.1278 3.49077C16.6207 3.09065 17.1681 2.86697 17.7354 2.86697H19.9393V2.86691ZM19.9393 15.3128H17.7354C17.3716 15.3128 17.016 15.2205 16.6776 15.0491L19.121 14.4797C19.1578 14.4712 19.1931 14.4593 19.2266 14.4448C19.232 14.4527 19.2372 14.4606 19.2426 14.4684C19.2753 14.516 19.3085 14.563 19.3421 14.6093C19.3492 14.6191 19.3565 14.6286 19.3636 14.6384C19.3905 14.675 19.4176 14.7112 19.445 14.7469C19.4566 14.762 19.4682 14.7768 19.4798 14.7916C19.504 14.8225 19.5284 14.8531 19.553 14.8832C19.5648 14.8978 19.5767 14.9124 19.5886 14.9268C19.6168 14.9608 19.6454 14.9943 19.6741 15.0274C19.6819 15.0364 19.6896 15.0456 19.6975 15.0546C19.734 15.0961 19.7709 15.1368 19.8082 15.1768C19.8178 15.1871 19.8276 15.1971 19.8373 15.2073C19.8654 15.237 19.8938 15.2665 19.9224 15.2954C19.9281 15.301 19.9336 15.3071 19.9393 15.3128ZM22.7137 15.3128C20.7257 15.3128 18.98 12.5694 18.98 9.08984C18.98 8.26736 19.0776 7.4861 19.2528 6.7724C19.2564 6.76006 19.2595 6.74755 19.2623 6.73495C19.4816 5.85842 19.8181 5.08515 20.2351 4.46505C20.2507 4.44495 20.2652 4.42401 20.2783 4.40216C20.9429 3.44322 21.8028 2.86691 22.7138 2.86691C24.7017 2.86691 26.4475 5.61027 26.4475 9.08984C26.4475 12.5694 24.7017 15.3128 22.7137 15.3128Z" fill="#FF1313"/>
<path d="M22.7137 1.62231H17.7354C15.9197 1.62231 14.3807 3.02271 13.5132 5.10764C13.5125 5.10924 13.5119 5.11085 13.5113 5.11245C13.031 6.26872 12.757 7.63502 12.757 9.08984C12.757 13.1712 14.9118 16.5574 17.7354 16.5574H22.7138C25.5373 16.5574 27.6921 13.1712 27.6921 9.08984C27.6921 5.00849 25.5373 1.62231 22.7137 1.62231ZM15.499 14.0459C15.1837 13.649 14.9051 13.171 14.6764 12.6293L15.0376 12.7772C15.163 12.8285 15.3017 12.8375 15.4327 12.8029L18.1465 12.0845C18.1465 12.0847 18.1466 12.0849 18.1466 12.0851C18.1594 12.1293 18.1724 12.1733 18.1857 12.2171C18.192 12.2376 18.1981 12.2581 18.2044 12.2785C18.2213 12.3326 18.2385 12.3864 18.2562 12.4398C18.259 12.4484 18.2617 12.4571 18.2646 12.4656C18.2852 12.5273 18.3064 12.5885 18.3282 12.6492C18.3345 12.6667 18.3409 12.684 18.3473 12.7014C18.3632 12.7451 18.3794 12.7886 18.3959 12.8318C18.4037 12.8523 18.4116 12.8727 18.4195 12.893C18.4359 12.9349 18.4526 12.9765 18.4695 13.0179C18.4769 13.0361 18.4842 13.0544 18.4917 13.0725C18.5158 13.1303 18.5402 13.1878 18.5654 13.2446C18.5656 13.2451 18.5658 13.2456 18.566 13.246C18.5774 13.2719 18.5893 13.2973 18.6009 13.323L15.499 14.0459ZM15.2914 4.4145L16.0508 5.17382C16.1979 5.32096 16.4089 5.38481 16.6129 5.344L18.5568 4.95508C18.5347 5.0054 18.513 5.05612 18.4917 5.10726C18.4842 5.12531 18.4769 5.14355 18.4695 5.16169C18.4526 5.20311 18.4359 5.24474 18.4195 5.28668C18.4116 5.30701 18.4037 5.32735 18.3959 5.34779C18.3794 5.39102 18.3632 5.43457 18.3473 5.47836C18.3409 5.49574 18.3345 5.51301 18.3282 5.53049C18.3065 5.59122 18.2852 5.65239 18.2646 5.71411C18.2618 5.7226 18.2591 5.73126 18.2563 5.73978C18.2386 5.79325 18.2213 5.84707 18.2044 5.90127C18.1981 5.92163 18.192 5.94213 18.1857 5.96261C18.1744 6.00004 18.1631 6.03758 18.1521 6.07532L16.0757 6.53913L14.8219 5.22761C14.9638 4.93343 15.1213 4.66151 15.2914 4.4145ZM15.4188 7.65299C15.5695 7.81056 15.7916 7.8778 16.0043 7.83028L17.8592 7.41595C17.8584 7.42158 17.8576 7.4273 17.8568 7.43293C17.8541 7.45081 17.8517 7.46883 17.8492 7.48674C17.8417 7.53849 17.8346 7.59039 17.8278 7.64251C17.8248 7.66623 17.8218 7.69003 17.8189 7.71383C17.813 7.76249 17.8074 7.81132 17.802 7.86027C17.7995 7.88314 17.797 7.90595 17.7946 7.92885C17.7883 7.98987 17.7826 8.0511 17.7773 8.11256C17.7764 8.12233 17.7754 8.13204 17.7746 8.14182C17.7687 8.21287 17.7636 8.28425 17.759 8.35587C17.7578 8.37378 17.7569 8.39177 17.7558 8.40971L15.4428 9.01709L14.1085 7.62136C14.1649 7.24002 14.2426 6.87301 14.3394 6.52381L15.4188 7.65299ZM14.7965 10.1422C14.9528 10.3057 15.1856 10.3715 15.4044 10.314L17.7517 9.69763C17.7528 9.71892 17.7541 9.74013 17.7553 9.76139C17.7566 9.78219 17.7576 9.80305 17.759 9.82379C17.7636 9.8954 17.7687 9.96678 17.7746 10.0378C17.7754 10.0476 17.7765 10.0573 17.7773 10.0671C17.7826 10.1286 17.7883 10.1898 17.7946 10.2508C17.797 10.2737 17.7995 10.2965 17.802 10.3194C17.8074 10.3684 17.813 10.4172 17.8189 10.4658C17.8218 10.4896 17.8248 10.5134 17.8278 10.5372C17.8346 10.5893 17.8417 10.6412 17.8492 10.6929C17.8517 10.7108 17.8541 10.7289 17.8568 10.7468C17.8629 10.7876 17.8694 10.8281 17.8759 10.8687L15.3161 11.5463L14.2027 11.0904C14.0867 10.5314 14.0178 9.93507 14.0043 9.31355L14.7965 10.1422ZM19.9393 2.86691C19.9336 2.8726 19.9281 2.87861 19.9225 2.88433C19.8938 2.91329 19.8654 2.94275 19.8371 2.97257C19.8275 2.98272 19.8178 2.99266 19.8082 3.00293C19.7709 3.04295 19.7339 3.0837 19.6975 3.12521C19.6896 3.13411 19.682 3.14327 19.6742 3.15222C19.6454 3.18539 19.6169 3.21894 19.5886 3.25301C19.5767 3.26736 19.5649 3.28191 19.5531 3.29644C19.5284 3.32669 19.504 3.35726 19.4798 3.38821C19.4682 3.40303 19.4566 3.41779 19.4451 3.43278C19.4227 3.46201 19.4005 3.49165 19.3784 3.52146L16.6953 4.0583L16.1278 3.49077C16.6207 3.09065 17.1681 2.86697 17.7354 2.86697H19.9393V2.86691ZM19.9393 15.3128H17.7354C17.3716 15.3128 17.016 15.2205 16.6776 15.0491L19.121 14.4797C19.1578 14.4712 19.1931 14.4593 19.2266 14.4448C19.232 14.4527 19.2372 14.4606 19.2426 14.4684C19.2753 14.516 19.3085 14.563 19.3421 14.6093C19.3492 14.6191 19.3565 14.6286 19.3636 14.6384C19.3905 14.675 19.4176 14.7112 19.445 14.7469C19.4566 14.762 19.4682 14.7768 19.4798 14.7916C19.504 14.8225 19.5284 14.8531 19.553 14.8832C19.5648 14.8978 19.5767 14.9124 19.5886 14.9268C19.6168 14.9608 19.6454 14.9943 19.6741 15.0274C19.6819 15.0364 19.6896 15.0456 19.6975 15.0546C19.734 15.0961 19.7709 15.1368 19.8082 15.1768C19.8178 15.1871 19.8276 15.1971 19.8373 15.2073C19.8654 15.237 19.8938 15.2665 19.9224 15.2954C19.9281 15.301 19.9336 15.3071 19.9393 15.3128ZM22.7137 15.3128C20.7257 15.3128 18.98 12.5694 18.98 9.08984C18.98 8.26736 19.0776 7.4861 19.2528 6.7724C19.2564 6.76006 19.2595 6.74755 19.2623 6.73495C19.4816 5.85842 19.8181 5.08515 20.2351 4.46505C20.2507 4.44495 20.2652 4.42401 20.2783 4.40216C20.9429 3.44322 21.8028 2.86691 22.7138 2.86691C24.7017 2.86691 26.4475 5.61027 26.4475 9.08984C26.4475 12.5694 24.7017 15.3128 22.7137 15.3128Z" stroke="white" stroke-width="2" mask="url(#path-2-outside-1_235_4)"/>
<path d="M23.0023 6.45184L23.0023 6.45181C22.8977 6.20774 22.7955 6.04175 22.7137 5.93966L23.0023 6.45184ZM23.0023 6.45184C23.2812 7.10273 23.4583 8.04662 23.4583 9.08993M23.0023 6.45184L23.4583 9.08993M22.7137 12.2402C22.7955 12.1381 22.8977 11.9721 23.0023 11.728L22.7137 12.2402ZM22.7137 12.2402C22.632 12.1381 22.5298 11.9721 22.4251 11.728C22.1462 11.0771 21.9691 10.1332 21.9691 9.08993C21.9691 8.04662 22.1462 7.10273 22.4251 6.45183L22.7137 12.2402ZM23.4583 9.08993C23.4583 10.1332 23.2812 11.0771 23.0023 11.728L23.4583 9.08993ZM22.7137 3.61157C21.6676 3.61157 20.9137 4.39317 20.4484 5.36733C19.975 6.35828 19.7246 7.6816 19.7246 9.08993C19.7246 10.4983 19.975 11.8216 20.4484 12.8125C20.9137 13.7867 21.6676 14.5683 22.7137 14.5683C23.7598 14.5683 24.5138 13.7867 24.9791 12.8126C25.4524 11.8216 25.7029 10.4983 25.7029 9.08993C25.7029 7.68158 25.4524 6.35827 24.9791 5.36732C24.5138 4.39316 23.7598 3.61157 22.7137 3.61157Z" fill="#FF1313" stroke="white"/>
</svg>
