<svg width="5" height="9" viewBox="0 0 5 9" fill="none" xmlns="http://www.w3.org/2000/svg">
<path d="M2.7587 1.4106C3.1411 1.43744 3.48325 1.15567 3.51679 0.759853C3.54363 0.377455 3.26186 0.0353101 2.86604 0.00176643C2.48365 -0.0250685 2.1415 0.256698 2.10796 0.652513C2.08112 1.04162 2.37631 1.38377 2.7587 1.4106Z" fill="white"/>
<path d="M2.16164 1.69893C2.29582 1.5983 2.46353 1.54463 2.65138 1.55134C2.88618 1.57147 3.09416 1.71906 3.2082 1.89349L3.91262 3.29561L4.87197 3.96649C4.95247 4.03357 5.00614 4.1342 4.99944 4.24154C4.99273 4.41597 4.83172 4.54344 4.65729 4.52331C4.61033 4.52331 4.55666 4.50319 4.5097 4.47635L3.47655 3.77193C3.44972 3.7451 3.41617 3.71155 3.39605 3.6713L3.1277 3.14802L2.81239 4.54344L4.06021 6.01936C4.08705 6.06632 4.10717 6.11999 4.12059 6.16695L4.45603 7.94476C4.45603 7.98502 4.45603 8.01185 4.45603 8.0454C4.4359 8.31374 4.2078 8.49488 3.94616 8.48817C3.73148 8.46805 3.57048 8.31374 3.51681 8.11248L3.2015 6.45543L2.18848 5.32836L1.95367 6.40846C1.94696 6.45543 1.87317 6.56277 1.85304 6.60302L0.886983 8.24666C0.786352 8.39425 0.632051 8.49488 0.444206 8.47475C0.175857 8.45463 -0.0186962 8.22653 0.00142998 7.96489C0.00813871 7.88439 0.0416824 7.8173 0.0685173 7.75692L0.974196 6.24745L1.72557 2.91322L1.23584 3.30903L0.967487 4.49648C0.940653 4.64407 0.79306 4.77153 0.632051 4.76483C0.457624 4.75812 0.330158 4.59711 0.336867 4.42268C0.336867 4.41597 0.336867 4.39585 0.343575 4.38243L0.645468 3.00043C0.665595 2.94005 0.69243 2.89309 0.746099 2.85284L2.16164 1.69893Z" fill="white"/>
</svg>
