<svg width="20" height="20" viewBox="0 0 20 20" fill="none" xmlns="http://www.w3.org/2000/svg">
<path d="M10 10C10.8653 10 11.7112 9.74341 12.4306 9.26268C13.1501 8.78195 13.7108 8.09867 14.042 7.29924C14.3731 6.49982 14.4597 5.62015 14.2909 4.77148C14.1221 3.92281 13.7054 3.14326 13.0936 2.53141C12.4817 1.91956 11.7022 1.50288 10.8535 1.33407C10.0049 1.16526 9.12519 1.2519 8.32576 1.58303C7.52633 1.91416 6.84305 2.47492 6.36232 3.19438C5.88159 3.91385 5.625 4.75971 5.625 5.625C5.625 6.78532 6.08594 7.89812 6.90641 8.71859C7.72688 9.53907 8.83968 10 10 10Z" fill="#F7F7F7"/>
<path d="M10.625 11.25H9.375C7.55164 11.25 5.80295 11.9743 4.51364 13.2636C3.22433 14.553 2.5 16.3016 2.5 18.125C2.5 18.2908 2.56585 18.4497 2.68306 18.5669C2.80027 18.6842 2.95924 18.75 3.125 18.75H16.875C17.0408 18.75 17.1997 18.6842 17.3169 18.5669C17.4342 18.4497 17.5 18.2908 17.5 18.125C17.5 16.3016 16.7757 14.553 15.4864 13.2636C14.197 11.9743 12.4484 11.25 10.625 11.25Z" fill="#F7F7F7"/>
</svg>
