<svg width="12" height="16" viewBox="0 0 12 16" fill="none" xmlns="http://www.w3.org/2000/svg">
<path d="M5.6 7.37539C4.716 7.37539 4 6.65939 4 5.77539C4 4.89139 4.716 4.17539 5.6 4.17539C6.484 4.17539 7.2 4.89139 7.2 5.77539C7.2 6.65939 6.484 7.37539 5.6 7.37539ZM5.6 0C2.5072 0 0 2.5072 0 5.6C0 8.6928 5.6 16 5.6 16C5.6 16 11.2 8.6928 11.2 5.6C11.2 2.5072 8.6928 0 5.6 0Z" fill="#59B73A"/>
<path d="M5.6 7.37539C4.716 7.37539 4 6.65939 4 5.77539C4 4.89139 4.716 4.17539 5.6 4.17539C6.484 4.17539 7.2 4.89139 7.2 5.77539C7.2 6.65939 6.484 7.37539 5.6 7.37539ZM5.6 0C2.5072 0 0 2.5072 0 5.6C0 8.6928 5.6 16 5.6 16C5.6 16 11.2 8.6928 11.2 5.6C11.2 2.5072 8.6928 0 5.6 0Z" stroke="black"/>
</svg>
