<svg width="25" height="25" viewBox="0 0 25 25" fill="none" xmlns="http://www.w3.org/2000/svg">
<path d="M12.3493 13.0751C12.2695 13.0637 12.1669 13.0637 12.0758 13.0751C10.0703 13.0066 8.47501 11.3633 8.47501 9.34329C8.47501 7.27769 10.1387 5.6001 12.2125 5.6001C14.275 5.6001 15.95 7.27769 15.95 9.34329C15.9386 11.3633 14.3547 13.0066 12.3493 13.0751Z" stroke="white" stroke-opacity="0.7" stroke-width="2" stroke-linecap="round" stroke-linejoin="round"/>
<path d="M19.975 21.0167C17.925 22.8727 15.2069 23.9999 12.2125 23.9999C9.21808 23.9999 6.50005 22.8727 4.45001 21.0167C4.56518 19.9464 5.25621 18.8989 6.48853 18.0791C9.64421 16.0068 14.8038 16.0068 17.9365 18.0791C19.1688 18.8989 19.8598 19.9464 19.975 21.0167Z" stroke="white" stroke-opacity="0.7" stroke-width="2" stroke-linecap="round" stroke-linejoin="round"/>
<path d="M12.5 24C18.8512 24 24 18.8512 24 12.5C24 6.14872 18.8512 1 12.5 1C6.14872 1 1 6.14872 1 12.5C1 18.8512 6.14872 24 12.5 24Z" stroke="white" stroke-opacity="0.7" stroke-width="2" stroke-linecap="round" stroke-linejoin="round"/>
</svg>
