<svg width="14" height="14" viewBox="0 0 14 14" fill="none" xmlns="http://www.w3.org/2000/svg">
<g clip-path="url(#clip0_103_2164)">
<path d="M10.0672 12.5783L12.086 9.70586C12.1608 9.59867 12.2043 9.47271 12.2114 9.34217C12.2185 9.21163 12.1891 9.08168 12.1264 8.96697C12.0659 8.85179 11.974 8.75616 11.8613 8.69123C11.7486 8.62631 11.6197 8.59476 11.4898 8.60027L10.0861 8.64368L9.84737 0.923402C9.84162 0.737262 9.76215 0.561032 9.62646 0.433481C9.49077 0.305929 9.30997 0.237505 9.12383 0.243261C8.93769 0.249016 8.76146 0.32848 8.63391 0.464171C8.50635 0.599862 8.43793 0.780665 8.44369 0.966805L8.6824 8.68708L7.27872 8.73048C7.14889 8.73392 7.02263 8.77373 6.91431 8.84539C6.80599 8.91705 6.71996 9.01767 6.66601 9.13581C6.60968 9.25398 6.58786 9.38566 6.60306 9.51569C6.61827 9.64572 6.66988 9.76881 6.75196 9.87079L8.9443 12.6131C9.01237 12.6982 9.09933 12.7663 9.19829 12.812C9.29725 12.8578 9.4055 12.8798 9.51445 12.8764C9.62341 12.8731 9.73009 12.8444 9.82604 12.7926C9.92198 12.7409 10.0046 12.6675 10.0672 12.5783Z" fill="#59B73A"/>
<path d="M4.08058 0.680221L6.27291 3.42249C6.35424 3.52485 6.40538 3.64789 6.42057 3.77774C6.43575 3.90759 6.41438 4.03911 6.35887 4.15747C6.30567 4.27617 6.21982 4.3773 6.11134 4.44906C6.00286 4.52083 5.87621 4.56027 5.74616 4.5628L4.34248 4.6062L4.58119 12.3265C4.58695 12.5126 4.51852 12.6934 4.39097 12.8291C4.26342 12.9648 4.08719 13.0443 3.90105 13.05C3.71491 13.0558 3.53411 12.9874 3.39842 12.8598C3.26272 12.7323 3.18326 12.556 3.1775 12.3699L2.93879 4.64961L1.5351 4.69301C1.40531 4.6976 1.27683 4.66566 1.16429 4.60083C1.05175 4.53601 0.959672 4.44089 0.898527 4.32631C0.835 4.21184 0.805086 4.08176 0.81223 3.95105C0.819373 3.82033 0.863284 3.69428 0.938906 3.58742L2.95763 0.714943C3.02031 0.625756 3.10289 0.552386 3.19884 0.500646C3.29479 0.448905 3.40147 0.420214 3.51042 0.416845C3.61938 0.413476 3.72763 0.435521 3.82659 0.481235C3.92555 0.526949 4.01251 0.595076 4.08058 0.680221Z" fill="#59B73A"/>
</g>
<defs>
<clipPath id="clip0_103_2164">
<rect width="12.6392" height="12.6392" fill="white" transform="translate(12.6331 0.134766) rotate(88.2289)"/>
</clipPath>
</defs>
</svg>
