<svg width="9" height="9" viewBox="0 0 5 5" fill="none" xmlns="http://www.w3.org/2000/svg">
<path d="M1.78829 0.852096C2.10495 0.284033 2.26327 0 2.5 0C2.73672 0 2.89505 0.28403 3.2117 0.852094L3.29362 0.999059C3.38362 1.16048 3.4286 1.2412 3.49877 1.29445C3.56892 1.34771 3.65627 1.36748 3.83102 1.40701L3.99012 1.44301C4.60502 1.58214 4.91249 1.65171 4.98564 1.88694C5.05879 2.12215 4.84919 2.36728 4.42997 2.85748L4.32152 2.9843C4.2024 3.1236 4.14282 3.19325 4.11602 3.27943C4.08925 3.3656 4.09825 3.45853 4.11625 3.64441L4.13265 3.81361C4.19602 4.46766 4.22772 4.79468 4.03622 4.94006C3.8447 5.08543 3.55682 4.95288 2.98107 4.68781L2.83212 4.61921C2.66852 4.54388 2.58672 4.50621 2.5 4.50621C2.41327 4.50621 2.33147 4.54388 2.16787 4.61921L2.01892 4.68781C1.44317 4.95288 1.15529 5.08543 0.963787 4.94006C0.77228 4.79468 0.803969 4.46766 0.867349 3.81361L0.883744 3.64441C0.901757 3.45853 0.910762 3.3656 0.883964 3.27943C0.857169 3.19325 0.797607 3.1236 0.67848 2.9843L0.570025 2.85748C0.150813 2.36728 -0.0587944 2.12215 0.0143555 1.88694C0.0875054 1.65171 0.394965 1.58214 1.00988 1.44301L1.16897 1.40701C1.34371 1.36748 1.43108 1.34771 1.50123 1.29445C1.57139 1.2412 1.61638 1.16049 1.70637 0.999059L1.78829 0.852096Z" fill="white"/>
</svg>
