<svg width="20" height="20" viewBox="0 0 20 20" fill="none" xmlns="http://www.w3.org/2000/svg">
<path fill-rule="evenodd" clip-rule="evenodd" d="M10 20C15.5229 20 20 15.5229 20 10C20 4.47716 15.5229 0 10 0C4.47716 0 0 4.47716 0 10C0 15.5229 4.47716 20 10 20ZM11.1111 3.88889C11.1111 3.27524 10.6137 2.77778 10 2.77778C9.38633 2.77778 8.88889 3.27524 8.88889 3.88889V9.72222C8.88889 10.4893 9.51067 11.1111 10.2778 11.1111H13.8889C14.5026 11.1111 15 10.6137 15 10C15 9.38633 14.5026 8.88889 13.8889 8.88889H11.1111V3.88889Z" fill="#F7F7F7"/>
</svg>
