<svg width="50" height="50" viewBox="0 0 54 54" fill="none" xmlns="http://www.w3.org/2000/svg">
<path fill-rule="evenodd" clip-rule="evenodd" d="M27 0C16.8177 0 11.7265 3.21867e-07 8.56324 3.16325C5.6929 6.03364 5.42711 10.4914 5.40251 18.9001H2.7C1.20884 18.9001 0 20.1089 0 21.6001V24.3001C0 25.1501 0.400113 25.9501 1.08 26.4601L5.4 29.7001C5.4246 38.1088 5.6929 42.5665 8.56324 45.4369C9.21712 46.0908 9.95341 46.6095 10.8 47.021V51.3C10.8 52.7912 12.0088 54 13.5 54H17.55C19.0412 54 20.25 52.7912 20.25 51.3V48.5503C22.2132 48.6002 24.4463 48.6002 27 48.6002C29.5537 48.6002 31.7868 48.6002 33.75 48.5503V51.3C33.75 52.7912 34.9588 54 36.45 54H40.5C41.9912 54 43.2 52.7912 43.2 51.3V47.021C44.0467 46.6095 44.7827 46.0908 45.4367 45.4369C48.307 42.5665 48.5754 38.1088 48.6 29.7001L52.92 26.4601C53.5999 25.9501 54 25.1501 54 24.3001V21.6001C54 20.1089 52.7912 18.9001 51.3 18.9001H48.5976C48.573 10.4914 48.307 6.03364 45.4367 3.16325C42.2736 3.21867e-07 37.1822 0 27 0ZM9.45 20.2501C9.45 24.0685 9.45 25.9776 10.6362 27.164C11.8224 28.3501 13.7316 28.3501 17.55 28.3501H27H36.45C40.2683 28.3501 42.1775 28.3501 43.3639 27.164C44.55 25.9776 44.55 24.0685 44.55 20.2501V13.5001C44.55 9.68168 44.55 7.77247 43.3639 6.58625C42.1775 5.40003 40.2683 5.40003 36.45 5.40003H27H17.55C13.7316 5.40003 11.8224 5.40003 10.6362 6.58625C9.45 7.77247 9.45 9.68168 9.45 13.5001V20.2501ZM11.475 37.8002C11.475 36.6818 12.3816 35.7752 13.5 35.7752H17.55C18.6684 35.7752 19.575 36.6818 19.575 37.8002C19.575 38.9185 18.6684 39.8252 17.55 39.8252H13.5C12.3816 39.8252 11.475 38.9185 11.475 37.8002ZM42.525 37.8002C42.525 36.6818 41.6183 35.7752 40.5 35.7752H36.45C35.3317 35.7752 34.425 36.6818 34.425 37.8002C34.425 38.9185 35.3317 39.8252 36.45 39.8252H40.5C41.6183 39.8252 42.525 38.9185 42.525 37.8002Z" fill="white"/>
</svg>
