<svg width="48" height="26" viewBox="0 0 57 35" fill="none" xmlns="http://www.w3.org/2000/svg">
<path d="M46.7748 14.3946C45.6145 14.3946 44.5267 14.6138 43.4389 14.9791L40.6832 9.49896L45.3969 2.41127C45.9046 1.68058 45.6145 0 44.0916 0H38.0725C37.2023 0 36.5496 0.65762 36.5496 1.53445C36.5496 2.41127 37.2023 3.06889 38.0725 3.06889H41.2634L38.0725 7.89144H20.5229C19.7977 7.89144 19.2901 8.54906 19.2901 8.54906L14.6489 15.4175C13.3435 14.7599 11.8206 14.3946 10.2252 14.3946C4.5687 14.3946 0 18.9979 0 24.6973C0 30.3967 4.5687 35 10.2977 35C15.374 35 19.6527 31.2004 20.3779 26.2317H28.7176C29.5878 26.2317 29.9504 25.501 29.9504 25.501L38.6527 12.3486L40.7557 16.3674C38.2176 18.2672 36.5496 21.263 36.5496 24.6973C36.5496 30.3967 41.1183 35 46.7748 35C52.4313 35 57 30.3967 57 24.6973C57 18.9979 52.3588 14.3946 46.7748 14.3946ZM28.8626 21.7015L23.0611 10.8873H35.9695L28.8626 21.7015ZM20.3779 12.3486L26.1069 23.1628H20.3053C19.9427 20.8246 18.7824 18.7056 17.1145 17.1712L20.3779 12.3486ZM15.4466 19.7286C16.3168 20.6785 16.9695 21.8476 17.2595 23.1628H13.126L15.4466 19.7286ZM10.2977 31.858C6.38168 31.858 3.11832 28.643 3.11832 24.6242C3.11832 20.6054 6.30916 17.4635 10.2977 17.4635C11.2405 17.4635 12.1107 17.6827 12.9809 17.9749L9.06489 23.8205C8.41221 24.6242 8.99237 26.1587 10.2977 26.1587H17.2595C16.5344 29.4468 13.6336 31.858 10.2977 31.858ZM46.7748 31.858C42.8588 31.858 39.5954 28.643 39.5954 24.6242C39.5954 22.4321 40.6107 20.3862 42.2061 19.071L45.4695 25.3549C45.8321 25.9395 46.7023 26.3779 47.5725 26.0125C48.2977 25.7202 48.5878 24.6973 48.2252 23.9666L44.9618 17.7557C45.542 17.6096 46.1947 17.4635 46.8473 17.4635C50.7634 17.4635 54.0267 20.6785 54.0267 24.6973C54.0267 28.7161 50.7634 31.858 46.7748 31.858ZM17.7672 5.4071H23.3511C24.2214 5.4071 24.874 4.74948 24.874 3.87265C24.874 2.99583 24.2214 2.3382 23.3511 2.3382H17.7672C16.8969 2.3382 16.2443 2.99583 16.2443 3.87265C16.1718 4.67641 16.8969 5.4071 17.7672 5.4071Z" fill="white"/>
</svg>
