<svg width="14" height="14" viewBox="0 0 14 14" fill="none" xmlns="http://www.w3.org/2000/svg">
<path d="M7 0C7.35898 0 7.65485 0.270228 7.69529 0.618365L7.7 0.7L7.70024 1.61978C10.1366 1.93375 12.0666 3.86399 12.3803 6.30046L13.3 6.3C13.6866 6.3 14 6.6134 14 7C14 7.35898 13.7298 7.65485 13.3816 7.69529L13.3 7.7L12.3802 7.70024C12.0663 10.1364 10.1364 12.0663 7.70024 12.3802L7.7 13.3C7.7 13.6866 7.3866 14 7 14C6.64102 14 6.34515 13.7298 6.30471 13.3816L6.3 13.3L6.30046 12.3803C3.86399 12.0666 1.93375 10.1366 1.61978 7.70024L0.7 7.7C0.313401 7.7 0 7.3866 0 7C0 6.64102 0.270228 6.34515 0.618365 6.30471L0.7 6.3L1.61968 6.30046C1.93338 3.86376 3.86376 1.93338 6.30046 1.61968L6.3 0.7C6.3 0.313401 6.6134 0 7 0ZM7 2.975C4.77705 2.975 2.975 4.77705 2.975 7C2.975 9.22295 4.77705 11.025 7 11.025C9.22295 11.025 11.025 9.22295 11.025 7C11.025 4.77705 9.22295 2.975 7 2.975ZM7 4.2C8.5464 4.2 9.8 5.4536 9.8 7C9.8 8.5464 8.5464 9.8 7 9.8C5.4536 9.8 4.2 8.5464 4.2 7C4.2 5.4536 5.4536 4.2 7 4.2Z" fill="#59B73A"/>
</svg>
